<svg xmlns="http://www.w3.org/2000/svg" xmlns:xlink="http://www.w3.org/1999/xlink" contentStyleType="text/css" data-diagram-type="ACTIVITY" height="1715px" preserveAspectRatio="none" style="width:478px;height:1715px;background:#FFFFFF;" version="1.1" viewBox="0 0 478 1715" width="478px" zoomAndPan="magnify"><title>EMTS - Main Activity Diagram (Overall System Flow)</title><defs/><g><g class="title" data-source-line="1"><text fill="#000000" font-family="sans-serif" font-size="14" font-weight="bold" lengthAdjust="spacing" textLength="412.8975" x="31.1284" y="32.9951">EMTS - Main Activity Diagram (Overall System Flow)</text></g><ellipse cx="238.8052" cy="57.2969" fill="#222222" rx="10" ry="10" style="stroke:#222222;stroke-width:1;"/><rect fill="#F1F1F1" height="33.9688" rx="12.5" ry="12.5" style="stroke:#181818;stroke-width:0.5;" width="122.9141" x="177.3481" y="87.2969"/><text fill="#000000" font-family="sans-serif" font-size="12" lengthAdjust="spacing" textLength="102.9141" x="187.3481" y="108.4355">Open Application</text><rect fill="#F1F1F1" height="33.9688" rx="12.5" ry="12.5" style="stroke:#181818;stroke-width:0.5;" width="188.0234" x="144.7935" y="141.2656"/><text fill="#000000" font-family="sans-serif" font-size="12" lengthAdjust="spacing" textLength="168.0234" x="154.7935" y="162.4043">Display Login/Register Page</text><rect fill="#F1F1F1" height="33.9688" rx="12.5" ry="12.5" style="stroke:#181818;stroke-width:0.5;" width="152.4102" x="162.6001" y="243.6367"/><text fill="#000000" font-family="sans-serif" font-size="12" lengthAdjust="spacing" textLength="132.4102" x="172.6001" y="264.7754">Register New Account</text><rect fill="#F1F1F1" height="33.9688" rx="12.5" ry="12.5" style="stroke:#181818;stroke-width:0.5;" width="141.8047" x="167.9028" y="312.6055"/><text fill="#000000" font-family="sans-serif" font-size="12" lengthAdjust="spacing" textLength="121.8047" x="177.9028" y="333.7441">Save user info in DB</text><polygon fill="#F1F1F1" points="191.835,195.2344,285.7754,195.2344,297.7754,207.2344,285.7754,219.2344,191.835,219.2344,179.835,207.2344,191.835,195.2344" style="stroke:#181818;stroke-width:0.5;"/><text fill="#000000" font-family="sans-serif" font-size="11" lengthAdjust="spacing" textLength="14.9585" x="242.8052" y="229.4448">No</text><text fill="#000000" font-family="sans-serif" font-size="11" lengthAdjust="spacing" textLength="93.9404" x="191.835" y="211.0425">User Registered?</text><polygon fill="#F1F1F1" points="238.8052,366.5742,250.8052,378.5742,238.8052,390.5742,226.8052,378.5742,238.8052,366.5742" style="stroke:#181818;stroke-width:0.5;"/><rect fill="#F1F1F1" height="33.9688" rx="12.5" ry="12.5" style="stroke:#181818;stroke-width:0.5;" width="192.752" x="142.4292" y="410.5742"/><text fill="#000000" font-family="sans-serif" font-size="12" lengthAdjust="spacing" textLength="172.752" x="152.4292" y="431.7129">Login with Email &amp; Password</text><rect fill="#F1F1F1" height="33.9688" rx="12.5" ry="12.5" style="stroke:#181818;stroke-width:0.5;" width="139.6016" x="169.0044" y="464.543"/><text fill="#000000" font-family="sans-serif" font-size="12" lengthAdjust="spacing" textLength="119.6016" x="179.0044" y="485.6816">Validate credentials</text><polygon fill="#F1F1F1" points="207.9214,518.5117,269.689,518.5117,281.689,530.5117,269.689,542.5117,207.9214,542.5117,195.9214,530.5117,207.9214,518.5117" style="stroke:#181818;stroke-width:0.5;"/><text fill="#000000" font-family="sans-serif" font-size="11" lengthAdjust="spacing" textLength="61.7676" x="207.9214" y="534.3198">Valid User?</text><text fill="#000000" font-family="sans-serif" font-size="11" lengthAdjust="spacing" textLength="19.2178" x="176.7036" y="527.9175">Yes</text><text fill="#000000" font-family="sans-serif" font-size="11" lengthAdjust="spacing" textLength="14.9585" x="281.689" y="527.9175">No</text><rect fill="#F1F1F1" height="33.9688" rx="12.5" ry="12.5" style="stroke:#181818;stroke-width:0.5;" width="155.2813" x="76.4785" y="552.5117"/><text fill="#000000" font-family="sans-serif" font-size="12" lengthAdjust="spacing" textLength="135.2813" x="86.4785" y="573.6504">Redirect to Dashboard</text><rect fill="#F1F1F1" height="33.9688" rx="12.5" ry="12.5" style="stroke:#181818;stroke-width:0.5;" width="143.4629" x="251.7598" y="552.5117"/><text fill="#000000" font-family="sans-serif" font-size="12" lengthAdjust="spacing" textLength="123.4629" x="261.7598" y="573.6504">Show error message</text><ellipse cx="323.4912" cy="617.4805" fill="none" rx="11" ry="11" style="stroke:#222222;stroke-width:1;"/><ellipse cx="323.4912" cy="617.4805" fill="#222222" rx="6" ry="6" style="stroke:#222222;stroke-width:1;"/><rect fill="#F1F1F1" height="33.9688" rx="12.5" ry="12.5" style="stroke:#181818;stroke-width:0.5;" width="167.2344" x="155.188" y="648.4805"/><text fill="#000000" font-family="sans-serif" font-size="12" lengthAdjust="spacing" textLength="147.2344" x="165.188" y="669.6191">Browse Available Events</text><rect fill="#F1F1F1" height="33.9688" rx="12.5" ry="12.5" style="stroke:#181818;stroke-width:0.5;" width="207.8164" x="134.897" y="702.4492"/><text fill="#000000" font-family="sans-serif" font-size="12" lengthAdjust="spacing" textLength="187.8164" x="144.897" y="723.5879">Select an Event to View Details</text><rect fill="#F1F1F1" height="33.9688" rx="12.5" ry="12.5" style="stroke:#181818;stroke-width:0.5;" width="166.9531" x="155.3286" y="804.8203"/><text fill="#000000" font-family="sans-serif" font-size="12" lengthAdjust="spacing" textLength="146.9531" x="165.3286" y="825.959">Check Ticket Availability</text><polygon fill="#F1F1F1" points="210.6687,858.7891,266.9417,858.7891,278.9417,870.7891,266.9417,882.7891,210.6687,882.7891,198.6687,870.7891,210.6687,858.7891" style="stroke:#181818;stroke-width:0.5;"/><text fill="#000000" font-family="sans-serif" font-size="11" lengthAdjust="spacing" textLength="56.2729" x="210.6687" y="874.5972">Available?</text><text fill="#000000" font-family="sans-serif" font-size="11" lengthAdjust="spacing" textLength="19.2178" x="179.4509" y="868.1948">Yes</text><text fill="#000000" font-family="sans-serif" font-size="11" lengthAdjust="spacing" textLength="14.9585" x="278.9417" y="868.1948">No</text><rect fill="#F1F1F1" height="33.9688" rx="12.5" ry="12.5" style="stroke:#181818;stroke-width:0.5;" width="231.1543" x="11.4395" y="892.7891"/><text fill="#000000" font-family="sans-serif" font-size="12" lengthAdjust="spacing" textLength="211.1543" x="21.4395" y="913.9277">Enter Quantity &amp; Confirm Purchase</text><rect fill="#F1F1F1" height="33.9688" rx="12.5" ry="12.5" style="stroke:#181818;stroke-width:0.5;" width="216.7637" x="18.6348" y="946.7578"/><text fill="#000000" font-family="sans-serif" font-size="12" lengthAdjust="spacing" textLength="196.7637" x="28.6348" y="967.8965">Create Ticket (status = pending)</text><rect fill="#F1F1F1" height="33.9688" rx="12.5" ry="12.5" style="stroke:#181818;stroke-width:0.5;" width="122.8848" x="65.5742" y="1015.7266"/><text fill="#000000" font-family="sans-serif" font-size="12" lengthAdjust="spacing" textLength="102.8848" x="75.5742" y="1036.8652">Process Payment</text><rect fill="#F1F1F1" height="33.9688" rx="12.5" ry="12.5" style="stroke:#181818;stroke-width:0.5;" width="232.0332" x="11" y="1069.6953"/><text fill="#000000" font-family="sans-serif" font-size="12" lengthAdjust="spacing" textLength="212.0332" x="21" y="1090.834">Update Ticket (status = confirmed)</text><rect fill="#F1F1F1" height="33.9688" rx="12.5" ry="12.5" style="stroke:#181818;stroke-width:0.5;" width="181.6719" x="36.1807" y="1123.6641"/><text fill="#000000" font-family="sans-serif" font-size="12" lengthAdjust="spacing" textLength="161.6719" x="46.1807" y="1144.8027">Send Purchase Notification</text><rect fill="#F1F1F1" height="33.9688" rx="12.5" ry="12.5" style="stroke:#181818;stroke-width:0.5;" width="175.1211" x="263.0332" y="892.7891"/><text fill="#000000" font-family="sans-serif" font-size="12" lengthAdjust="spacing" textLength="155.1211" x="273.0332" y="913.9277">Show "Sold Out" Message</text><polygon fill="#F1F1F1" points="238.8052,1163.6328,250.8052,1175.6328,238.8052,1187.6328,226.8052,1175.6328,238.8052,1163.6328" style="stroke:#181818;stroke-width:0.5;"/><polygon fill="#F1F1F1" points="183.5178,756.418,294.0925,756.418,306.0925,768.418,294.0925,780.418,183.5178,780.418,171.5178,768.418,183.5178,756.418" style="stroke:#181818;stroke-width:0.5;"/><text fill="#000000" font-family="sans-serif" font-size="11" lengthAdjust="spacing" textLength="19.2178" x="242.8052" y="790.6284">Yes</text><text fill="#000000" font-family="sans-serif" font-size="11" lengthAdjust="spacing" textLength="110.5747" x="183.5178" y="772.2261">Want to Buy Ticket?</text><polygon fill="#F1F1F1" points="238.8052,1207.6328,250.8052,1219.6328,238.8052,1231.6328,226.8052,1219.6328,238.8052,1207.6328" style="stroke:#181818;stroke-width:0.5;"/><rect fill="#F1F1F1" height="33.9688" rx="12.5" ry="12.5" style="stroke:#181818;stroke-width:0.5;" width="100.7656" x="188.4224" y="1300.0352"/><text fill="#000000" font-family="sans-serif" font-size="12" lengthAdjust="spacing" textLength="80.7656" x="198.4224" y="1321.1738">Cancel Ticket</text><rect fill="#F1F1F1" height="33.9688" rx="12.5" ry="12.5" style="stroke:#181818;stroke-width:0.5;" width="219.1484" x="129.231" y="1354.0039"/><text fill="#000000" font-family="sans-serif" font-size="12" lengthAdjust="spacing" textLength="199.1484" x="139.231" y="1375.1426">Update Ticket status = cancelled</text><rect fill="#F1F1F1" height="33.9688" rx="12.5" ry="12.5" style="stroke:#181818;stroke-width:0.5;" width="198.1016" x="139.7544" y="1422.9727"/><text fill="#000000" font-family="sans-serif" font-size="12" lengthAdjust="spacing" textLength="178.1016" x="149.7544" y="1444.1113">Recalculate Event Availability</text><rect fill="#F1F1F1" height="33.9688" rx="12.5" ry="12.5" style="stroke:#181818;stroke-width:0.5;" width="201.0313" x="138.2896" y="1476.9414"/><text fill="#000000" font-family="sans-serif" font-size="12" lengthAdjust="spacing" textLength="181.0313" x="148.2896" y="1498.0801">Send Cancellation Notification</text><polygon fill="#F1F1F1" points="175.3994,1251.6328,302.2109,1251.6328,314.2109,1263.6328,302.2109,1275.6328,175.3994,1275.6328,163.3994,1263.6328,175.3994,1251.6328" style="stroke:#181818;stroke-width:0.5;"/><text fill="#000000" font-family="sans-serif" font-size="11" lengthAdjust="spacing" textLength="19.2178" x="242.8052" y="1285.8433">Yes</text><text fill="#000000" font-family="sans-serif" font-size="11" lengthAdjust="spacing" textLength="126.8115" x="175.3994" y="1267.4409">Want to Cancel Ticket?</text><polygon fill="#F1F1F1" points="238.8052,1530.9102,250.8052,1542.9102,238.8052,1554.9102,226.8052,1542.9102,238.8052,1530.9102" style="stroke:#181818;stroke-width:0.5;"/><rect fill="#F1F1F1" height="33.9688" rx="12.5" ry="12.5" style="stroke:#181818;stroke-width:0.5;" width="116.375" x="180.6177" y="1574.9102"/><text fill="#000000" font-family="sans-serif" font-size="12" lengthAdjust="spacing" textLength="96.375" x="190.6177" y="1596.0488">View My Tickets</text><rect fill="#F1F1F1" height="33.9688" rx="12.5" ry="12.5" style="stroke:#181818;stroke-width:0.5;" width="61.2969" x="208.1567" y="1628.8789"/><text fill="#000000" font-family="sans-serif" font-size="12" lengthAdjust="spacing" textLength="41.2969" x="218.1567" y="1650.0176">Logout</text><ellipse cx="238.8052" cy="1693.8477" fill="none" rx="11" ry="11" style="stroke:#222222;stroke-width:1;"/><ellipse cx="238.8052" cy="1693.8477" fill="#222222" rx="6" ry="6" style="stroke:#222222;stroke-width:1;"/><line style="stroke:#181818;stroke-width:1;" x1="238.8052" x2="238.8052" y1="67.2969" y2="87.2969"/><polygon fill="#181818" points="234.8052,77.2969,238.8052,87.2969,242.8052,77.2969,238.8052,81.2969" style="stroke:#181818;stroke-width:1;"/><line style="stroke:#181818;stroke-width:1;" x1="238.8052" x2="238.8052" y1="121.2656" y2="141.2656"/><polygon fill="#181818" points="234.8052,131.2656,238.8052,141.2656,242.8052,131.2656,238.8052,135.2656" style="stroke:#181818;stroke-width:1;"/><line style="stroke:#181818;stroke-width:1;" x1="238.8052" x2="238.8052" y1="277.6055" y2="312.6055"/><polygon fill="#181818" points="234.8052,302.6055,238.8052,312.6055,242.8052,302.6055,238.8052,306.6055" style="stroke:#181818;stroke-width:1;"/><line style="stroke:#181818;stroke-width:1;" x1="238.8052" x2="238.8052" y1="219.2344" y2="243.6367"/><polygon fill="#181818" points="234.8052,233.6367,238.8052,243.6367,242.8052,233.6367,238.8052,237.6367" style="stroke:#181818;stroke-width:1;"/><line style="stroke:#181818;stroke-width:1;" x1="297.7754" x2="325.0103" y1="207.2344" y2="207.2344"/><polygon fill="#181818" points="321.0103,285.1055,325.0103,295.1055,329.0103,285.1055,325.0103,289.1055" style="stroke:#181818;stroke-width:1;"/><line style="stroke:#181818;stroke-width:1;" x1="325.0103" x2="325.0103" y1="207.2344" y2="378.5742"/><line style="stroke:#181818;stroke-width:1;" x1="325.0103" x2="250.8052" y1="378.5742" y2="378.5742"/><polygon fill="#181818" points="260.8052,374.5742,250.8052,378.5742,260.8052,382.5742,256.8052,378.5742" style="stroke:#181818;stroke-width:1;"/><line style="stroke:#181818;stroke-width:1;" x1="238.8052" x2="238.8052" y1="346.5742" y2="366.5742"/><polygon fill="#181818" points="234.8052,356.5742,238.8052,366.5742,242.8052,356.5742,238.8052,360.5742" style="stroke:#181818;stroke-width:1;"/><line style="stroke:#181818;stroke-width:1;" x1="238.8052" x2="238.8052" y1="175.2344" y2="195.2344"/><polygon fill="#181818" points="234.8052,185.2344,238.8052,195.2344,242.8052,185.2344,238.8052,189.2344" style="stroke:#181818;stroke-width:1;"/><line style="stroke:#181818;stroke-width:1;" x1="238.8052" x2="238.8052" y1="390.5742" y2="410.5742"/><polygon fill="#181818" points="234.8052,400.5742,238.8052,410.5742,242.8052,400.5742,238.8052,404.5742" style="stroke:#181818;stroke-width:1;"/><line style="stroke:#181818;stroke-width:1;" x1="238.8052" x2="238.8052" y1="444.543" y2="464.543"/><polygon fill="#181818" points="234.8052,454.543,238.8052,464.543,242.8052,454.543,238.8052,458.543" style="stroke:#181818;stroke-width:1;"/><line style="stroke:#181818;stroke-width:1;" x1="323.4912" x2="323.4912" y1="586.4805" y2="606.4805"/><polygon fill="#181818" points="319.4912,596.4805,323.4912,606.4805,327.4912,596.4805,323.4912,600.4805" style="stroke:#181818;stroke-width:1;"/><line style="stroke:#181818;stroke-width:1;" x1="195.9214" x2="154.1191" y1="530.5117" y2="530.5117"/><line style="stroke:#181818;stroke-width:1;" x1="154.1191" x2="154.1191" y1="530.5117" y2="552.5117"/><polygon fill="#181818" points="150.1191,542.5117,154.1191,552.5117,158.1191,542.5117,154.1191,546.5117" style="stroke:#181818;stroke-width:1;"/><line style="stroke:#181818;stroke-width:1;" x1="281.689" x2="323.4912" y1="530.5117" y2="530.5117"/><line style="stroke:#181818;stroke-width:1;" x1="323.4912" x2="323.4912" y1="530.5117" y2="552.5117"/><polygon fill="#181818" points="319.4912,542.5117,323.4912,552.5117,327.4912,542.5117,323.4912,546.5117" style="stroke:#181818;stroke-width:1;"/><line style="stroke:#181818;stroke-width:1;" x1="154.1191" x2="154.1191" y1="586.4805" y2="633.4805"/><line style="stroke:#181818;stroke-width:1;" x1="154.1191" x2="238.8052" y1="633.4805" y2="633.4805"/><line style="stroke:#181818;stroke-width:1;" x1="238.8052" x2="238.8052" y1="633.4805" y2="648.4805"/><polygon fill="#181818" points="234.8052,638.4805,238.8052,648.4805,242.8052,638.4805,238.8052,642.4805" style="stroke:#181818;stroke-width:1;"/><line style="stroke:#181818;stroke-width:1;" x1="238.8052" x2="238.8052" y1="498.5117" y2="518.5117"/><polygon fill="#181818" points="234.8052,508.5117,238.8052,518.5117,242.8052,508.5117,238.8052,512.5117" style="stroke:#181818;stroke-width:1;"/><line style="stroke:#181818;stroke-width:1;" x1="238.8052" x2="238.8052" y1="682.4492" y2="702.4492"/><polygon fill="#181818" points="234.8052,692.4492,238.8052,702.4492,242.8052,692.4492,238.8052,696.4492" style="stroke:#181818;stroke-width:1;"/><line style="stroke:#181818;stroke-width:1;" x1="127.0166" x2="127.0166" y1="926.7578" y2="946.7578"/><polygon fill="#181818" points="123.0166,936.7578,127.0166,946.7578,131.0166,936.7578,127.0166,940.7578" style="stroke:#181818;stroke-width:1;"/><line style="stroke:#181818;stroke-width:1;" x1="127.0166" x2="127.0166" y1="980.7266" y2="1015.7266"/><polygon fill="#181818" points="123.0166,1005.7266,127.0166,1015.7266,131.0166,1005.7266,127.0166,1009.7266" style="stroke:#181818;stroke-width:1;"/><line style="stroke:#181818;stroke-width:1;" x1="127.0166" x2="127.0166" y1="1049.6953" y2="1069.6953"/><polygon fill="#181818" points="123.0166,1059.6953,127.0166,1069.6953,131.0166,1059.6953,127.0166,1063.6953" style="stroke:#181818;stroke-width:1;"/><line style="stroke:#181818;stroke-width:1;" x1="127.0166" x2="127.0166" y1="1103.6641" y2="1123.6641"/><polygon fill="#181818" points="123.0166,1113.6641,127.0166,1123.6641,131.0166,1113.6641,127.0166,1117.6641" style="stroke:#181818;stroke-width:1;"/><line style="stroke:#181818;stroke-width:1;" x1="198.6687" x2="127.0166" y1="870.7891" y2="870.7891"/><line style="stroke:#181818;stroke-width:1;" x1="127.0166" x2="127.0166" y1="870.7891" y2="892.7891"/><polygon fill="#181818" points="123.0166,882.7891,127.0166,892.7891,131.0166,882.7891,127.0166,886.7891" style="stroke:#181818;stroke-width:1;"/><line style="stroke:#181818;stroke-width:1;" x1="278.9417" x2="350.5938" y1="870.7891" y2="870.7891"/><line style="stroke:#181818;stroke-width:1;" x1="350.5938" x2="350.5938" y1="870.7891" y2="892.7891"/><polygon fill="#181818" points="346.5938,882.7891,350.5938,892.7891,354.5938,882.7891,350.5938,886.7891" style="stroke:#181818;stroke-width:1;"/><line style="stroke:#181818;stroke-width:1;" x1="127.0166" x2="127.0166" y1="1157.6328" y2="1175.6328"/><line style="stroke:#181818;stroke-width:1;" x1="127.0166" x2="226.8052" y1="1175.6328" y2="1175.6328"/><polygon fill="#181818" points="216.8052,1171.6328,226.8052,1175.6328,216.8052,1179.6328,220.8052,1175.6328" style="stroke:#181818;stroke-width:1;"/><line style="stroke:#181818;stroke-width:1;" x1="350.5938" x2="350.5938" y1="926.7578" y2="1175.6328"/><line style="stroke:#181818;stroke-width:1;" x1="350.5938" x2="250.8052" y1="1175.6328" y2="1175.6328"/><polygon fill="#181818" points="260.8052,1171.6328,250.8052,1175.6328,260.8052,1179.6328,256.8052,1175.6328" style="stroke:#181818;stroke-width:1;"/><line style="stroke:#181818;stroke-width:1;" x1="238.8052" x2="238.8052" y1="838.7891" y2="858.7891"/><polygon fill="#181818" points="234.8052,848.7891,238.8052,858.7891,242.8052,848.7891,238.8052,852.7891" style="stroke:#181818;stroke-width:1;"/><line style="stroke:#181818;stroke-width:1;" x1="238.8052" x2="238.8052" y1="780.418" y2="804.8203"/><polygon fill="#181818" points="234.8052,794.8203,238.8052,804.8203,242.8052,794.8203,238.8052,798.8203" style="stroke:#181818;stroke-width:1;"/><line style="stroke:#181818;stroke-width:1;" x1="306.0925" x2="452.1543" y1="768.418" y2="768.418"/><polygon fill="#181818" points="448.1543,986.2266,452.1543,996.2266,456.1543,986.2266,452.1543,990.2266" style="stroke:#181818;stroke-width:1;"/><line style="stroke:#181818;stroke-width:1;" x1="452.1543" x2="452.1543" y1="768.418" y2="1219.6328"/><line style="stroke:#181818;stroke-width:1;" x1="452.1543" x2="250.8052" y1="1219.6328" y2="1219.6328"/><polygon fill="#181818" points="260.8052,1215.6328,250.8052,1219.6328,260.8052,1223.6328,256.8052,1219.6328" style="stroke:#181818;stroke-width:1;"/><line style="stroke:#181818;stroke-width:1;" x1="238.8052" x2="238.8052" y1="1187.6328" y2="1207.6328"/><polygon fill="#181818" points="234.8052,1197.6328,238.8052,1207.6328,242.8052,1197.6328,238.8052,1201.6328" style="stroke:#181818;stroke-width:1;"/><line style="stroke:#181818;stroke-width:1;" x1="238.8052" x2="238.8052" y1="736.418" y2="756.418"/><polygon fill="#181818" points="234.8052,746.418,238.8052,756.418,242.8052,746.418,238.8052,750.418" style="stroke:#181818;stroke-width:1;"/><line style="stroke:#181818;stroke-width:1;" x1="238.8052" x2="238.8052" y1="1334.0039" y2="1354.0039"/><polygon fill="#181818" points="234.8052,1344.0039,238.8052,1354.0039,242.8052,1344.0039,238.8052,1348.0039" style="stroke:#181818;stroke-width:1;"/><line style="stroke:#181818;stroke-width:1;" x1="238.8052" x2="238.8052" y1="1387.9727" y2="1422.9727"/><polygon fill="#181818" points="234.8052,1412.9727,238.8052,1422.9727,242.8052,1412.9727,238.8052,1416.9727" style="stroke:#181818;stroke-width:1;"/><line style="stroke:#181818;stroke-width:1;" x1="238.8052" x2="238.8052" y1="1456.9414" y2="1476.9414"/><polygon fill="#181818" points="234.8052,1466.9414,238.8052,1476.9414,242.8052,1466.9414,238.8052,1470.9414" style="stroke:#181818;stroke-width:1;"/><line style="stroke:#181818;stroke-width:1;" x1="238.8052" x2="238.8052" y1="1275.6328" y2="1300.0352"/><polygon fill="#181818" points="234.8052,1290.0352,238.8052,1300.0352,242.8052,1290.0352,238.8052,1294.0352" style="stroke:#181818;stroke-width:1;"/><line style="stroke:#181818;stroke-width:1;" x1="314.2109" x2="358.3794" y1="1263.6328" y2="1263.6328"/><polygon fill="#181818" points="354.3794,1395.4727,358.3794,1405.4727,362.3794,1395.4727,358.3794,1399.4727" style="stroke:#181818;stroke-width:1;"/><line style="stroke:#181818;stroke-width:1;" x1="358.3794" x2="358.3794" y1="1263.6328" y2="1542.9102"/><line style="stroke:#181818;stroke-width:1;" x1="358.3794" x2="250.8052" y1="1542.9102" y2="1542.9102"/><polygon fill="#181818" points="260.8052,1538.9102,250.8052,1542.9102,260.8052,1546.9102,256.8052,1542.9102" style="stroke:#181818;stroke-width:1;"/><line style="stroke:#181818;stroke-width:1;" x1="238.8052" x2="238.8052" y1="1510.9102" y2="1530.9102"/><polygon fill="#181818" points="234.8052,1520.9102,238.8052,1530.9102,242.8052,1520.9102,238.8052,1524.9102" style="stroke:#181818;stroke-width:1;"/><line style="stroke:#181818;stroke-width:1;" x1="238.8052" x2="238.8052" y1="1231.6328" y2="1251.6328"/><polygon fill="#181818" points="234.8052,1241.6328,238.8052,1251.6328,242.8052,1241.6328,238.8052,1245.6328" style="stroke:#181818;stroke-width:1;"/><line style="stroke:#181818;stroke-width:1;" x1="238.8052" x2="238.8052" y1="1554.9102" y2="1574.9102"/><polygon fill="#181818" points="234.8052,1564.9102,238.8052,1574.9102,242.8052,1564.9102,238.8052,1568.9102" style="stroke:#181818;stroke-width:1;"/><line style="stroke:#181818;stroke-width:1;" x1="238.8052" x2="238.8052" y1="1608.8789" y2="1628.8789"/><polygon fill="#181818" points="234.8052,1618.8789,238.8052,1628.8789,242.8052,1618.8789,238.8052,1622.8789" style="stroke:#181818;stroke-width:1;"/><line style="stroke:#181818;stroke-width:1;" x1="238.8052" x2="238.8052" y1="1662.8477" y2="1682.8477"/><polygon fill="#181818" points="234.8052,1672.8477,238.8052,1682.8477,242.8052,1672.8477,238.8052,1676.8477" style="stroke:#181818;stroke-width:1;"/><!--SRC=[TLBBRjj03BphAuWS0ljGz6wZAE97J_MZLPAYHsP5MqHMky8kPS5_NwvUITps8a1B3cSu766n1DlTOmwVO8ViuC48NrYki64y1wnWThXGG6iXlqQX2hvPtywpB0e6oRB5eIO5rRLbWyBUBRF5XcDjyGhV_PdTvvzqPWK6EEAPbbd69vWzHVqV2rHydOEKEcQsz_CCO351zjIg8ECR9yjKoF52q2GmkvFN3snMounSmIULql51orB2jaAsSA-SCRO-5Ahg6IqNA0H66Sa9eus3dAu4ITIav3V5GKh1WOo0UDXWB5yyfcba8qroyzAtG27u01N5sAq94CNNaxHLyAqY7Yug2r-IvHULeFoBd6mQZwv_IZpFh6jlIBHtLFWB-zAgkS8ZcrUIlvIkIpAlGt4aOgkNJ6BIZ8dy5ghWhKjs_sYK9jt-7jRUdJXKS6o2AJ5s6oMIGCd2WMMc8P0cmXUeqwBkF1_QZi4RTKBjlrRKtqvVd-hYds3JSr4nmdETDZ73tWkVfdG1lFT-TFykzxQ0GoDti7ixGU_-S8FtDgxH6RB_TV9zjSlTH-Llmhj6IyMoZuf1QngREljRtbwXNwmVRxjzRfORuz8bO3UUEiL4i-qR5PEbMFq1]--></g></svg>