<svg xmlns="http://www.w3.org/2000/svg" xmlns:xlink="http://www.w3.org/1999/xlink" contentStyleType="text/css" data-diagram-type="CLASS" height="931px" preserveAspectRatio="none" style="width:2340px;height:931px;background:#FFFFFF;" version="1.1" viewBox="0 0 2340 931" width="2340px" zoomAndPan="magnify"><title>EMTS - Class Diagram</title><defs/><g><g class="title" data-source-line="1"><text fill="#1B4F72" font-family="sans-serif" font-size="14" font-weight="bold" lengthAdjust="spacing" textLength="171.5752" x="1077.6696" y="22.9951">EMTS - Class Diagram</text></g><!--class User--><g class="entity" data-entity="User" data-source-line="13" data-uid="ent0002" id="entity_User"><rect fill="#EBF5FB" height="219.2344" rx="2.5" ry="2.5" style="stroke:#2471A3;stroke-width:0.5;" width="182.0986" x="456.78" y="44.2969"/><text fill="#000000" font-family="sans-serif" font-size="12" lengthAdjust="spacing" textLength="27.3516" x="534.1535" y="60.4355">User</text><line style="stroke:#2471A3;stroke-width:0.5;" x1="457.78" x2="637.8786" y1="68.2656" y2="68.2656"/><ellipse cx="467.78" cy="81.9141" fill="none" rx="3" ry="3" style="stroke:#038048;stroke-width:1;"/><text fill="#000000" font-family="sans-serif" font-size="14" lengthAdjust="spacing" textLength="44.6455" x="476.78" y="85.2607">id : int</text><ellipse cx="467.78" cy="98.2109" fill="none" rx="3" ry="3" style="stroke:#038048;stroke-width:1;"/><text fill="#000000" font-family="sans-serif" font-size="14" lengthAdjust="spacing" textLength="93.5088" x="476.78" y="101.5576">name : string</text><ellipse cx="467.78" cy="114.5078" fill="none" rx="3" ry="3" style="stroke:#038048;stroke-width:1;"/><text fill="#000000" font-family="sans-serif" font-size="14" lengthAdjust="spacing" textLength="92.415" x="476.78" y="117.8545">email : string</text><ellipse cx="467.78" cy="130.8047" fill="none" rx="3" ry="3" style="stroke:#038048;stroke-width:1;"/><text fill="#000000" font-family="sans-serif" font-size="14" lengthAdjust="spacing" textLength="80.6299" x="476.78" y="134.1514">role : string</text><ellipse cx="467.78" cy="147.1016" fill="none" rx="3" ry="3" style="stroke:#038048;stroke-width:1;"/><text fill="#000000" font-family="sans-serif" font-size="14" lengthAdjust="spacing" textLength="120.5176" x="476.78" y="150.4482">password : string</text><ellipse cx="467.78" cy="163.3984" fill="none" rx="3" ry="3" style="stroke:#038048;stroke-width:1;"/><text fill="#000000" font-family="sans-serif" font-size="14" lengthAdjust="spacing" textLength="137.9014" x="476.78" y="166.7451">avatar_path : string</text><ellipse cx="467.78" cy="179.6953" fill="none" rx="3" ry="3" style="stroke:#038048;stroke-width:1;"/><text fill="#000000" font-family="sans-serif" font-size="14" lengthAdjust="spacing" textLength="151.5186" x="476.78" y="183.042">created_at : datetime</text><ellipse cx="467.78" cy="195.9922" fill="none" rx="3" ry="3" style="stroke:#038048;stroke-width:1;"/><text fill="#000000" font-family="sans-serif" font-size="14" lengthAdjust="spacing" textLength="156.0986" x="476.78" y="199.3389">updated_at : datetime</text><line style="stroke:#2471A3;stroke-width:1;" x1="457.78" x2="637.8786" y1="206.6406" y2="206.6406"/><ellipse cx="467.78" cy="220.2891" fill="#84BE84" rx="3" ry="3" style="stroke:#038048;stroke-width:1;"/><text fill="#000000" font-family="sans-serif" font-size="14" lengthAdjust="spacing" textLength="45.0283" x="476.78" y="223.6357">login()</text><ellipse cx="467.78" cy="236.5859" fill="#84BE84" rx="3" ry="3" style="stroke:#038048;stroke-width:1;"/><text fill="#000000" font-family="sans-serif" font-size="14" lengthAdjust="spacing" textLength="65.2217" x="476.78" y="239.9326">register()</text><ellipse cx="467.78" cy="252.8828" fill="#84BE84" rx="3" ry="3" style="stroke:#038048;stroke-width:1;"/><text fill="#000000" font-family="sans-serif" font-size="14" lengthAdjust="spacing" textLength="112.957" x="476.78" y="256.2295">resetPassword()</text></g><!--class Event--><g class="entity" data-entity="Event" data-source-line="28" data-uid="ent0003" id="entity_Event"><rect fill="#EBF5FB" height="186.6406" rx="2.5" ry="2.5" style="stroke:#2471A3;stroke-width:0.5;" width="191.252" x="141.21" y="340.5269"/><text fill="#000000" font-family="sans-serif" font-size="12" lengthAdjust="spacing" textLength="34.377" x="219.6475" y="356.6655">Event</text><line style="stroke:#2471A3;stroke-width:0.5;" x1="142.21" x2="331.462" y1="364.4956" y2="364.4956"/><ellipse cx="152.21" cy="378.1441" fill="none" rx="3" ry="3" style="stroke:#038048;stroke-width:1;"/><text fill="#000000" font-family="sans-serif" font-size="14" lengthAdjust="spacing" textLength="44.6455" x="161.21" y="381.4907">id : int</text><ellipse cx="152.21" cy="394.4409" fill="none" rx="3" ry="3" style="stroke:#038048;stroke-width:1;"/><text fill="#000000" font-family="sans-serif" font-size="14" lengthAdjust="spacing" textLength="81.1768" x="161.21" y="397.7876">title : string</text><ellipse cx="152.21" cy="410.7378" fill="none" rx="3" ry="3" style="stroke:#038048;stroke-width:1;"/><text fill="#000000" font-family="sans-serif" font-size="14" lengthAdjust="spacing" textLength="119.335" x="161.21" y="414.0845">description : text</text><ellipse cx="152.21" cy="427.0347" fill="none" rx="3" ry="3" style="stroke:#038048;stroke-width:1;"/><text fill="#000000" font-family="sans-serif" font-size="14" lengthAdjust="spacing" textLength="109.3545" x="161.21" y="430.3814">location : string</text><ellipse cx="152.21" cy="443.3316" fill="none" rx="3" ry="3" style="stroke:#038048;stroke-width:1;"/><text fill="#000000" font-family="sans-serif" font-size="14" lengthAdjust="spacing" textLength="108.3838" x="161.21" y="446.6782">date : datetime</text><ellipse cx="152.21" cy="459.6284" fill="none" rx="3" ry="3" style="stroke:#038048;stroke-width:1;"/><text fill="#000000" font-family="sans-serif" font-size="14" lengthAdjust="spacing" textLength="165.252" x="161.21" y="462.9751">approval_status : string</text><ellipse cx="152.21" cy="475.9253" fill="none" rx="3" ry="3" style="stroke:#038048;stroke-width:1;"/><text fill="#000000" font-family="sans-serif" font-size="14" lengthAdjust="spacing" textLength="82.1816" x="161.21" y="479.272">user_id : int</text><line style="stroke:#2471A3;stroke-width:1;" x1="142.21" x2="331.462" y1="486.5738" y2="486.5738"/><ellipse cx="152.21" cy="500.2222" fill="#84BE84" rx="3" ry="3" style="stroke:#038048;stroke-width:1;"/><text fill="#000000" font-family="sans-serif" font-size="14" lengthAdjust="spacing" textLength="68.4961" x="161.21" y="503.5689">approve()</text><ellipse cx="152.21" cy="516.5191" fill="#84BE84" rx="3" ry="3" style="stroke:#038048;stroke-width:1;"/><text fill="#000000" font-family="sans-serif" font-size="14" lengthAdjust="spacing" textLength="50.9824" x="161.21" y="519.8657">reject()</text></g><!--class Ticket--><g class="entity" data-entity="Ticket" data-source-line="41" data-uid="ent0004" id="entity_Ticket"><rect fill="#EBF5FB" height="170.3438" rx="2.5" ry="2.5" style="stroke:#2471A3;stroke-width:0.5;" width="192.1885" x="223.74" y="604.1669"/><text fill="#000000" font-family="sans-serif" font-size="12" lengthAdjust="spacing" textLength="36.2988" x="301.6848" y="620.3055">Ticket</text><line style="stroke:#2471A3;stroke-width:0.5;" x1="224.74" x2="414.9285" y1="628.1356" y2="628.1356"/><ellipse cx="234.74" cy="641.7841" fill="none" rx="3" ry="3" style="stroke:#038048;stroke-width:1;"/><text fill="#000000" font-family="sans-serif" font-size="14" lengthAdjust="spacing" textLength="44.6455" x="243.74" y="645.1307">id : int</text><ellipse cx="234.74" cy="658.0809" fill="none" rx="3" ry="3" style="stroke:#038048;stroke-width:1;"/><text fill="#000000" font-family="sans-serif" font-size="14" lengthAdjust="spacing" textLength="91.5195" x="243.74" y="661.4276">event_id : int</text><ellipse cx="234.74" cy="674.3778" fill="none" rx="3" ry="3" style="stroke:#038048;stroke-width:1;"/><text fill="#000000" font-family="sans-serif" font-size="14" lengthAdjust="spacing" textLength="82.1816" x="243.74" y="677.7245">user_id : int</text><ellipse cx="234.74" cy="690.6747" fill="none" rx="3" ry="3" style="stroke:#038048;stroke-width:1;"/><text fill="#000000" font-family="sans-serif" font-size="14" lengthAdjust="spacing" textLength="96.8242" x="243.74" y="694.0214">status : string</text><ellipse cx="234.74" cy="706.9716" fill="none" rx="3" ry="3" style="stroke:#038048;stroke-width:1;"/><text fill="#000000" font-family="sans-serif" font-size="14" lengthAdjust="spacing" textLength="166.1885" x="243.74" y="710.3182">payment_status : string</text><ellipse cx="234.74" cy="723.2684" fill="none" rx="3" ry="3" style="stroke:#038048;stroke-width:1;"/><text fill="#000000" font-family="sans-serif" font-size="14" lengthAdjust="spacing" textLength="151.5186" x="243.74" y="726.6151">created_at : datetime</text><line style="stroke:#2471A3;stroke-width:1;" x1="224.74" x2="414.9285" y1="733.9169" y2="733.9169"/><ellipse cx="234.74" cy="747.5653" fill="#84BE84" rx="3" ry="3" style="stroke:#038048;stroke-width:1;"/><text fill="#000000" font-family="sans-serif" font-size="14" lengthAdjust="spacing" textLength="75.4961" x="243.74" y="750.912">purchase()</text><ellipse cx="234.74" cy="763.8622" fill="#84BE84" rx="3" ry="3" style="stroke:#038048;stroke-width:1;"/><text fill="#000000" font-family="sans-serif" font-size="14" lengthAdjust="spacing" textLength="56.2734" x="243.74" y="767.2089">cancel()</text></g><!--class Notification--><g class="entity" data-entity="Notification" data-source-line="53" data-uid="ent0005" id="entity_Notification"><rect fill="#EBF5FB" height="137.75" rx="2.5" ry="2.5" style="stroke:#2471A3;stroke-width:0.5;" width="130.4121" x="482.63" y="364.9769"/><text fill="#000000" font-family="sans-serif" font-size="12" lengthAdjust="spacing" textLength="68.8535" x="513.4093" y="381.1155">Notification</text><line style="stroke:#2471A3;stroke-width:0.5;" x1="483.63" x2="612.0421" y1="388.9456" y2="388.9456"/><ellipse cx="493.63" cy="402.5941" fill="none" rx="3" ry="3" style="stroke:#038048;stroke-width:1;"/><text fill="#000000" font-family="sans-serif" font-size="14" lengthAdjust="spacing" textLength="44.6455" x="502.63" y="405.9407">id : int</text><ellipse cx="493.63" cy="418.8909" fill="none" rx="3" ry="3" style="stroke:#038048;stroke-width:1;"/><text fill="#000000" font-family="sans-serif" font-size="14" lengthAdjust="spacing" textLength="82.1816" x="502.63" y="422.2376">user_id : int</text><ellipse cx="493.63" cy="435.1878" fill="none" rx="3" ry="3" style="stroke:#038048;stroke-width:1;"/><text fill="#000000" font-family="sans-serif" font-size="14" lengthAdjust="spacing" textLength="85.0801" x="502.63" y="438.5345">type : string</text><ellipse cx="493.63" cy="451.4847" fill="none" rx="3" ry="3" style="stroke:#038048;stroke-width:1;"/><text fill="#000000" font-family="sans-serif" font-size="14" lengthAdjust="spacing" textLength="104.4121" x="502.63" y="454.8314">message : text</text><ellipse cx="493.63" cy="467.7816" fill="none" rx="3" ry="3" style="stroke:#038048;stroke-width:1;"/><text fill="#000000" font-family="sans-serif" font-size="14" lengthAdjust="spacing" textLength="75.3594" x="502.63" y="471.1282">read : bool</text><line style="stroke:#2471A3;stroke-width:1;" x1="483.63" x2="612.0421" y1="478.43" y2="478.43"/><ellipse cx="493.63" cy="492.0784" fill="#84BE84" rx="3" ry="3" style="stroke:#038048;stroke-width:1;"/><text fill="#000000" font-family="sans-serif" font-size="14" lengthAdjust="spacing" textLength="99.6816" x="502.63" y="495.4251">markAsRead()</text></g><!--class LoginLog--><g class="entity" data-entity="LoginLog" data-source-line="63" data-uid="ent0006" id="entity_LoginLog"><rect fill="#EBF5FB" height="105.1563" rx="2.5" ry="2.5" style="stroke:#2471A3;stroke-width:0.5;" width="178.332" x="647.67" y="381.2769"/><text fill="#000000" font-family="sans-serif" font-size="12" lengthAdjust="spacing" textLength="54.2285" x="709.7218" y="397.4155">LoginLog</text><line style="stroke:#2471A3;stroke-width:0.5;" x1="648.67" x2="825.002" y1="405.2456" y2="405.2456"/><ellipse cx="658.67" cy="418.8941" fill="none" rx="3" ry="3" style="stroke:#038048;stroke-width:1;"/><text fill="#000000" font-family="sans-serif" font-size="14" lengthAdjust="spacing" textLength="44.6455" x="667.67" y="422.2407">id : int</text><ellipse cx="658.67" cy="435.1909" fill="none" rx="3" ry="3" style="stroke:#038048;stroke-width:1;"/><text fill="#000000" font-family="sans-serif" font-size="14" lengthAdjust="spacing" textLength="82.1816" x="667.67" y="438.5376">user_id : int</text><ellipse cx="658.67" cy="451.4878" fill="none" rx="3" ry="3" style="stroke:#038048;stroke-width:1;"/><text fill="#000000" font-family="sans-serif" font-size="14" lengthAdjust="spacing" textLength="128.8916" x="667.67" y="454.8345">ip_address : string</text><ellipse cx="658.67" cy="467.7847" fill="none" rx="3" ry="3" style="stroke:#038048;stroke-width:1;"/><text fill="#000000" font-family="sans-serif" font-size="14" lengthAdjust="spacing" textLength="152.332" x="667.67" y="471.1314">timestamp : datetime</text><line style="stroke:#2471A3;stroke-width:0.5;" x1="648.67" x2="825.002" y1="478.4331" y2="478.4331"/></g><!--class SupportMessage--><g class="entity" data-entity="SupportMessage" data-source-line="70" data-uid="ent0007" id="entity_SupportMessage"><rect fill="#EBF5FB" height="121.4531" rx="2.5" ry="2.5" style="stroke:#2471A3;stroke-width:0.5;" width="130.5488" x="860.56" y="373.1269"/><text fill="#000000" font-family="sans-serif" font-size="12" lengthAdjust="spacing" textLength="100.0313" x="875.8188" y="389.2655">SupportMessage</text><line style="stroke:#2471A3;stroke-width:0.5;" x1="861.56" x2="990.1088" y1="397.0956" y2="397.0956"/><ellipse cx="871.56" cy="410.7441" fill="none" rx="3" ry="3" style="stroke:#038048;stroke-width:1;"/><text fill="#000000" font-family="sans-serif" font-size="14" lengthAdjust="spacing" textLength="44.6455" x="880.56" y="414.0907">id : int</text><ellipse cx="871.56" cy="427.0409" fill="none" rx="3" ry="3" style="stroke:#038048;stroke-width:1;"/><text fill="#000000" font-family="sans-serif" font-size="14" lengthAdjust="spacing" textLength="82.1816" x="880.56" y="430.3876">user_id : int</text><ellipse cx="871.56" cy="443.3378" fill="none" rx="3" ry="3" style="stroke:#038048;stroke-width:1;"/><text fill="#000000" font-family="sans-serif" font-size="14" lengthAdjust="spacing" textLength="104.5488" x="880.56" y="446.6845">subject : string</text><ellipse cx="871.56" cy="459.6347" fill="none" rx="3" ry="3" style="stroke:#038048;stroke-width:1;"/><text fill="#000000" font-family="sans-serif" font-size="14" lengthAdjust="spacing" textLength="104.4121" x="880.56" y="462.9814">message : text</text><ellipse cx="871.56" cy="475.9316" fill="none" rx="3" ry="3" style="stroke:#038048;stroke-width:1;"/><text fill="#000000" font-family="sans-serif" font-size="14" lengthAdjust="spacing" textLength="96.8242" x="880.56" y="479.2782">status : string</text><line style="stroke:#2471A3;stroke-width:0.5;" x1="861.56" x2="990.1088" y1="486.58" y2="486.58"/></g><!--class SimpleBookingService--><g class="entity" data-entity="SimpleBookingService" data-source-line="79" data-uid="ent0008" id="entity_SimpleBookingService"><rect fill="#EBF5FB" height="72.5625" rx="2.5" ry="2.5" style="stroke:#2471A3;stroke-width:0.5;" width="240.2793" x="1025.69" y="397.5669"/><text fill="#000000" font-family="sans-serif" font-size="12" lengthAdjust="spacing" textLength="133.7461" x="1078.9566" y="413.7055">SimpleBookingService</text><line style="stroke:#2471A3;stroke-width:0.5;" x1="1026.69" x2="1264.9693" y1="421.5356" y2="421.5356"/><line style="stroke:#2471A3;stroke-width:0.5;" x1="1026.69" x2="1264.9693" y1="429.5356" y2="429.5356"/><ellipse cx="1036.69" cy="443.1841" fill="#84BE84" rx="3" ry="3" style="stroke:#038048;stroke-width:1;"/><text fill="#000000" font-family="sans-serif" font-size="14" lengthAdjust="spacing" textLength="214.2793" x="1045.69" y="446.5307">reserve(event_id, user_id, qty)</text><ellipse cx="1036.69" cy="459.4809" fill="#84BE84" rx="3" ry="3" style="stroke:#038048;stroke-width:1;"/><text fill="#000000" font-family="sans-serif" font-size="14" lengthAdjust="spacing" textLength="115.3359" x="1045.69" y="462.8276">cancel(ticket_id)</text></g><!--class SimplePaymentService--><g class="entity" data-entity="SimplePaymentService" data-source-line="84" data-uid="ent0009" id="entity_SimplePaymentService"><rect fill="#EBF5FB" height="56.2656" rx="2.5" ry="2.5" style="stroke:#2471A3;stroke-width:0.5;" width="161.8643" x="1300.9" y="405.7169"/><text fill="#000000" font-family="sans-serif" font-size="12" lengthAdjust="spacing" textLength="138.3984" x="1312.6329" y="421.8555">SimplePaymentService</text><line style="stroke:#2471A3;stroke-width:0.5;" x1="1301.9" x2="1461.7643" y1="429.6856" y2="429.6856"/><line style="stroke:#2471A3;stroke-width:0.5;" x1="1301.9" x2="1461.7643" y1="437.6856" y2="437.6856"/><ellipse cx="1311.9" cy="451.3341" fill="#84BE84" rx="3" ry="3" style="stroke:#038048;stroke-width:1;"/><text fill="#000000" font-family="sans-serif" font-size="14" lengthAdjust="spacing" textLength="135.8643" x="1320.9" y="454.6807">markPaid(ticket_id)</text></g><!--class SimpleNotificationService--><g class="entity" data-entity="SimpleNotificationService" data-source-line="88" data-uid="ent0010" id="entity_SimpleNotificationService"><rect fill="#EBF5FB" height="72.5625" rx="2.5" ry="2.5" style="stroke:#2471A3;stroke-width:0.5;" width="281.9443" x="1497.86" y="397.5669"/><text fill="#000000" font-family="sans-serif" font-size="12" lengthAdjust="spacing" textLength="154.1777" x="1561.7433" y="413.7055">SimpleNotificationService</text><line style="stroke:#2471A3;stroke-width:0.5;" x1="1498.86" x2="1778.8043" y1="421.5356" y2="421.5356"/><line style="stroke:#2471A3;stroke-width:0.5;" x1="1498.86" x2="1778.8043" y1="429.5356" y2="429.5356"/><ellipse cx="1508.86" cy="443.1841" fill="#84BE84" rx="3" ry="3" style="stroke:#038048;stroke-width:1;"/><text fill="#000000" font-family="sans-serif" font-size="14" lengthAdjust="spacing" textLength="233.3584" x="1517.86" y="446.5307">notifyPurchase(user_id, ticket_id)</text><ellipse cx="1508.86" cy="459.4809" fill="#84BE84" rx="3" ry="3" style="stroke:#038048;stroke-width:1;"/><text fill="#000000" font-family="sans-serif" font-size="14" lengthAdjust="spacing" textLength="255.9443" x="1517.86" y="462.8276">notifyCancellation(user_id, ticket_id)</text></g><!--class SimpleEventApprovalService--><g class="entity" data-entity="SimpleEventApprovalService" data-source-line="93" data-uid="ent0011" id="entity_SimpleEventApprovalService"><rect fill="#EBF5FB" height="72.5625" rx="2.5" ry="2.5" style="stroke:#2471A3;stroke-width:0.5;" width="194.2529" x="1814.71" y="397.5669"/><text fill="#000000" font-family="sans-serif" font-size="12" lengthAdjust="spacing" textLength="173.209" x="1825.232" y="413.7055">SimpleEventApprovalService</text><line style="stroke:#2471A3;stroke-width:0.5;" x1="1815.71" x2="2007.9629" y1="421.5356" y2="421.5356"/><line style="stroke:#2471A3;stroke-width:0.5;" x1="1815.71" x2="2007.9629" y1="429.5356" y2="429.5356"/><ellipse cx="1825.71" cy="443.1841" fill="#84BE84" rx="3" ry="3" style="stroke:#038048;stroke-width:1;"/><text fill="#000000" font-family="sans-serif" font-size="14" lengthAdjust="spacing" textLength="168.2529" x="1834.71" y="446.5307">approveEvent(event_id)</text><ellipse cx="1825.71" cy="459.4809" fill="#84BE84" rx="3" ry="3" style="stroke:#038048;stroke-width:1;"/><text fill="#000000" font-family="sans-serif" font-size="14" lengthAdjust="spacing" textLength="150.7393" x="1834.71" y="462.8276">rejectEvent(event_id)</text></g><!--class SimplePasswordResetService--><g class="entity" data-entity="SimplePasswordResetService" data-source-line="98" data-uid="ent0012" id="entity_SimplePasswordResetService"><rect fill="#EBF5FB" height="72.5625" rx="2.5" ry="2.5" style="stroke:#2471A3;stroke-width:0.5;" width="290.1543" x="2043.76" y="397.5669"/><text fill="#000000" font-family="sans-serif" font-size="12" lengthAdjust="spacing" textLength="176.1855" x="2100.7444" y="413.7055">SimplePasswordResetService</text><line style="stroke:#2471A3;stroke-width:0.5;" x1="2044.76" x2="2332.9143" y1="421.5356" y2="421.5356"/><line style="stroke:#2471A3;stroke-width:0.5;" x1="2044.76" x2="2332.9143" y1="429.5356" y2="429.5356"/><ellipse cx="2054.76" cy="443.1841" fill="#84BE84" rx="3" ry="3" style="stroke:#038048;stroke-width:1;"/><text fill="#000000" font-family="sans-serif" font-size="14" lengthAdjust="spacing" textLength="136.9922" x="2063.76" y="446.5307">createToken(email)</text><ellipse cx="2054.76" cy="459.4809" fill="#84BE84" rx="3" ry="3" style="stroke:#038048;stroke-width:1;"/><text fill="#000000" font-family="sans-serif" font-size="14" lengthAdjust="spacing" textLength="264.1543" x="2063.76" y="462.8276">resetPassword(token, new_password)</text></g><!--class TicketObserver--><g class="entity" data-entity="TicketObserver" data-source-line="104" data-uid="ent0013" id="entity_TicketObserver"><rect fill="#EBF5FB" height="72.5625" rx="2.5" ry="2.5" style="stroke:#2471A3;stroke-width:0.5;" width="223.0322" x="208.32" y="851.5169"/><text fill="#000000" font-family="sans-serif" font-size="12" lengthAdjust="spacing" textLength="91.3477" x="274.1623" y="867.6555">TicketObserver</text><line style="stroke:#2471A3;stroke-width:0.5;" x1="209.32" x2="430.3522" y1="875.4856" y2="875.4856"/><line style="stroke:#2471A3;stroke-width:0.5;" x1="209.32" x2="430.3522" y1="883.4856" y2="883.4856"/><ellipse cx="219.32" cy="897.1341" fill="#84BE84" rx="3" ry="3" style="stroke:#038048;stroke-width:1;"/><text fill="#000000" font-family="sans-serif" font-size="14" lengthAdjust="spacing" textLength="197.0322" x="228.32" y="900.4807">updateAvailability(event_id)</text><ellipse cx="219.32" cy="913.4309" fill="#84BE84" rx="3" ry="3" style="stroke:#038048;stroke-width:1;"/><text fill="#000000" font-family="sans-serif" font-size="14" lengthAdjust="spacing" textLength="191.2764" x="228.32" y="916.7776">sendNotifications(ticket_id)</text></g><!--class AuthController--><g class="entity" data-entity="AuthController" data-source-line="110" data-uid="ent0014" id="entity_AuthController"><rect fill="#EBF5FB" height="39.9688" rx="2.5" ry="2.5" style="stroke:#2471A3;stroke-width:0.5;" width="93.416" x="10.13" y="133.9269"/><text fill="#000000" font-family="sans-serif" font-size="12" lengthAdjust="spacing" textLength="87.416" x="13.13" y="150.0655">AuthController</text><line style="stroke:#2471A3;stroke-width:0.5;" x1="11.13" x2="102.546" y1="157.8956" y2="157.8956"/><line style="stroke:#2471A3;stroke-width:0.5;" x1="11.13" x2="102.546" y1="165.8956" y2="165.8956"/></g><!--class RegisterController--><g class="entity" data-entity="RegisterController" data-source-line="111" data-uid="ent0015" id="entity_RegisterController"><rect fill="#EBF5FB" height="39.9688" rx="2.5" ry="2.5" style="stroke:#2471A3;stroke-width:0.5;" width="115.2363" x="138.22" y="133.9269"/><text fill="#000000" font-family="sans-serif" font-size="12" lengthAdjust="spacing" textLength="109.2363" x="141.22" y="150.0655">RegisterController</text><line style="stroke:#2471A3;stroke-width:0.5;" x1="139.22" x2="252.4563" y1="157.8956" y2="157.8956"/><line style="stroke:#2471A3;stroke-width:0.5;" x1="139.22" x2="252.4563" y1="165.8956" y2="165.8956"/></g><!--class EventController--><g class="entity" data-entity="EventController" data-source-line="112" data-uid="ent0016" id="entity_EventController"><rect fill="#EBF5FB" height="39.9688" rx="2.5" ry="2.5" style="stroke:#2471A3;stroke-width:0.5;" width="99.668" x="7" y="413.8669"/><text fill="#000000" font-family="sans-serif" font-size="12" lengthAdjust="spacing" textLength="93.668" x="10" y="430.0055">EventController</text><line style="stroke:#2471A3;stroke-width:0.5;" x1="8" x2="105.668" y1="437.8356" y2="437.8356"/><line style="stroke:#2471A3;stroke-width:0.5;" x1="8" x2="105.668" y1="445.8356" y2="445.8356"/></g><!--class SimpleTicketController--><g class="entity" data-entity="SimpleTicketController" data-source-line="113" data-uid="ent0017" id="entity_SimpleTicketController"><rect fill="#EBF5FB" height="39.9688" rx="2.5" ry="2.5" style="stroke:#2471A3;stroke-width:0.5;" width="142.5645" x="1310.55" y="133.9269"/><text fill="#000000" font-family="sans-serif" font-size="12" lengthAdjust="spacing" textLength="136.5645" x="1313.55" y="150.0655">SimpleTicketController</text><line style="stroke:#2471A3;stroke-width:0.5;" x1="1311.55" x2="1452.1145" y1="157.8956" y2="157.8956"/><line style="stroke:#2471A3;stroke-width:0.5;" x1="1311.55" x2="1452.1145" y1="165.8956" y2="165.8956"/></g><!--class SimpleEventApprovalController--><g class="entity" data-entity="SimpleEventApprovalController" data-source-line="114" data-uid="ent0018" id="entity_SimpleEventApprovalController"><rect fill="#EBF5FB" height="39.9688" rx="2.5" ry="2.5" style="stroke:#2471A3;stroke-width:0.5;" width="194.1504" x="1814.76" y="133.9269"/><text fill="#000000" font-family="sans-serif" font-size="12" lengthAdjust="spacing" textLength="188.1504" x="1817.76" y="150.0655">SimpleEventApprovalController</text><line style="stroke:#2471A3;stroke-width:0.5;" x1="1815.76" x2="2007.9104" y1="157.8956" y2="157.8956"/><line style="stroke:#2471A3;stroke-width:0.5;" x1="1815.76" x2="2007.9104" y1="165.8956" y2="165.8956"/></g><!--class PasswordResetController--><g class="entity" data-entity="PasswordResetController" data-source-line="115" data-uid="ent0019" id="entity_PasswordResetController"><rect fill="#EBF5FB" height="39.9688" rx="2.5" ry="2.5" style="stroke:#2471A3;stroke-width:0.5;" width="156.1523" x="2110.76" y="133.9269"/><text fill="#000000" font-family="sans-serif" font-size="12" lengthAdjust="spacing" textLength="150.1523" x="2113.76" y="150.0655">PasswordResetController</text><line style="stroke:#2471A3;stroke-width:0.5;" x1="2111.76" x2="2265.9123" y1="157.8956" y2="157.8956"/><line style="stroke:#2471A3;stroke-width:0.5;" x1="2111.76" x2="2265.9123" y1="165.8956" y2="165.8956"/></g><!--link User to Event--><g class="link" data-entity-1="User" data-entity-2="Event" data-source-line="118" data-uid="lnk20" id="link_User_Event"><path codeLine="118" d="M456.45,194.6769 C409.66,218.3669 354.2,251.9369 313.83,293.5269 C300.55,307.2169 291.9292,318.5033 281.8992,335.2033" fill="none" id="User-to-Event" style="stroke:#1F618D;stroke-width:1;"/><polygon fill="#1F618D" points="278.81,340.3469,286.8729,334.691,281.3844,336.0605,280.0148,330.572,278.81,340.3469" style="stroke:#1F618D;stroke-width:1;"/><polygon fill="#000000" points="314.9353,305.2288,323.8239,301.8458,320.1379,297.2674,314.9353,305.2288" style="stroke:#000000;stroke-width:1;"/><text fill="#000000" font-family="sans-serif" font-size="13" lengthAdjust="spacing" textLength="48.3247" x="327.83" y="306.5938">creates</text><text fill="#000000" font-family="sans-serif" font-size="13" lengthAdjust="spacing" textLength="8.271" x="440.5626" y="194.5038">1</text><text fill="#000000" font-family="sans-serif" font-size="13" lengthAdjust="spacing" textLength="36.5625" x="244.7428" y="329.3706">many</text></g><!--link User to Ticket--><g class="link" data-entity-1="User" data-entity-2="Ticket" data-source-line="119" data-uid="lnk21" id="link_User_Ticket"><path codeLine="119" d="M463.7,263.5369 C447.47,287.9369 431.82,314.3769 419.83,340.5269 C375.14,438.0969 389.76,471.3969 358.83,574.1669 C355.94,583.7969 354.6281,588.1251 351.3681,598.0751" fill="none" id="User-to-Ticket" style="stroke:#1F618D;stroke-width:1;"/><polygon fill="#1F618D" points="349.5,603.7769,356.1034,596.4696,351.0568,599.0254,348.501,593.9788,349.5,603.7769" style="stroke:#1F618D;stroke-width:1;"/><polygon fill="#000000" points="423.2384,438.6532,428.9037,431.0141,423.3316,429.1431,423.2384,438.6532" style="stroke:#000000;stroke-width:1;"/><text fill="#000000" font-family="sans-serif" font-size="13" lengthAdjust="spacing" textLength="30.9575" x="433.83" y="438.4138">buys</text><text fill="#000000" font-family="sans-serif" font-size="13" lengthAdjust="spacing" textLength="8.271" x="449.7879" y="283.4774">1</text><text fill="#000000" font-family="sans-serif" font-size="13" lengthAdjust="spacing" textLength="36.5625" x="314.4894" y="593.1426">many</text></g><!--link Event to Ticket--><g class="link" data-entity-1="Event" data-entity-2="Ticket" data-source-line="120" data-uid="lnk22" id="link_Event_Ticket"><path codeLine="120" d="M267.15,527.4469 C275.35,552.4769 282.3033,573.7246 290.3433,598.2846" fill="none" id="Event-to-Ticket" style="stroke:#1F618D;stroke-width:1;"/><polygon fill="#1F618D" points="292.21,603.9869,293.2115,594.1891,290.6544,599.235,285.6085,596.678,292.21,603.9869" style="stroke:#1F618D;stroke-width:1;"/><polygon fill="#000000" points="287.3858,570.4851,287.3644,560.9745,281.7783,562.8035,287.3858,570.4851" style="stroke:#000000;stroke-width:1;"/><text fill="#000000" font-family="sans-serif" font-size="13" lengthAdjust="spacing" textLength="55.0278" x="294.83" y="570.2338">contains</text><text fill="#000000" font-family="sans-serif" font-size="13" lengthAdjust="spacing" textLength="8.271" x="261.175" y="547.2593">1</text><text fill="#000000" font-family="sans-serif" font-size="13" lengthAdjust="spacing" textLength="36.5625" x="252.3133" y="593.08">many</text></g><!--link User to Notification--><g class="link" data-entity-1="User" data-entity-2="Notification" data-source-line="121" data-uid="lnk23" id="link_User_Notification"><path codeLine="121" d="M547.83,263.9669 C547.83,297.8769 547.83,328.2869 547.83,358.5869" fill="none" id="User-to-Notification" style="stroke:#1F618D;stroke-width:1;"/><polygon fill="#1F618D" points="547.83,364.5869,551.83,355.5869,547.83,359.5869,543.83,355.5869,547.83,364.5869" style="stroke:#1F618D;stroke-width:1;"/><polygon fill="#000000" points="552.83,307.0933,555.7689,298.0482,549.8911,298.0482,552.83,307.0933" style="stroke:#000000;stroke-width:1;"/><text fill="#000000" font-family="sans-serif" font-size="13" lengthAdjust="spacing" textLength="54.5645" x="561.83" y="306.5938">receives</text><text fill="#000000" font-family="sans-serif" font-size="13" lengthAdjust="spacing" textLength="8.271" x="539.5825" y="283.5688">1</text><text fill="#000000" font-family="sans-serif" font-size="13" lengthAdjust="spacing" textLength="36.5625" x="510.0021" y="353.7442">many</text></g><!--link User to LoginLog--><g class="link" data-entity-1="User" data-entity-2="LoginLog" data-source-line="122" data-uid="lnk24" id="link_User_LoginLog"><path codeLine="122" d="M621.99,263.9669 C649.39,304.2669 675.827,343.1247 698.197,376.0347" fill="none" id="User-to-LoginLog" style="stroke:#1F618D;stroke-width:1;"/><polygon fill="#1F618D" points="701.57,380.9969,699.8187,371.305,698.7592,376.8617,693.2025,375.8022,701.57,380.9969" style="stroke:#1F618D;stroke-width:1;"/><polygon fill="#000000" points="661.6416,306.2279,658.9857,297.0957,654.1251,300.4009,661.6416,306.2279" style="stroke:#000000;stroke-width:1;"/><text fill="#000000" font-family="sans-serif" font-size="13" lengthAdjust="spacing" textLength="26.5903" x="667.83" y="306.5938">logs</text><text fill="#000000" font-family="sans-serif" font-size="13" lengthAdjust="spacing" textLength="8.271" x="618.4933" y="283.5688">1</text><text fill="#000000" font-family="sans-serif" font-size="13" lengthAdjust="spacing" textLength="36.5625" x="658.7813" y="370.3389">many</text></g><!--link User to SupportMessage--><g class="link" data-entity-1="User" data-entity-2="SupportMessage" data-source-line="123" data-uid="lnk25" id="link_User_SupportMessage"><path codeLine="123" d="M639.13,203.1469 C700.09,237.4669 780.4,286.8469 843.83,340.5269 C855.29,350.2269 862.5468,357.1021 872.9468,368.4021" fill="none" id="User-to-SupportMessage" style="stroke:#1F618D;stroke-width:1;"/><polygon fill="#1F618D" points="877.01,372.8169,873.8584,363.4859,873.624,369.1379,867.972,368.9035,877.01,372.8169" style="stroke:#1F618D;stroke-width:1;"/><polygon fill="#000000" points="808.9131,304.9791,803.2229,297.3586,799.8304,302.1586,808.9131,304.9791" style="stroke:#000000;stroke-width:1;"/><text fill="#000000" font-family="sans-serif" font-size="13" lengthAdjust="spacing" textLength="38.0352" x="813.83" y="306.5938">sends</text><text fill="#000000" font-family="sans-serif" font-size="13" lengthAdjust="spacing" textLength="8.271" x="646.7351" y="203.5446">1</text><text fill="#000000" font-family="sans-serif" font-size="13" lengthAdjust="spacing" textLength="36.5625" x="833.3159" y="361.9669">many</text></g><!--link Ticket to TicketObserver--><g class="link" data-entity-1="Ticket" data-entity-2="TicketObserver" data-source-line="125" data-uid="lnk26" id="link_Ticket_TicketObserver"><path codeLine="125" d="M319.83,774.7969 C319.83,801.6269 319.83,823.8569 319.83,845.2669" fill="none" id="Ticket-to-TicketObserver" style="stroke:#1F618D;stroke-width:1;stroke-dasharray:7,7;"/><polygon fill="#1F618D" points="319.83,851.2669,323.83,842.2669,319.83,846.2669,315.83,842.2669,319.83,851.2669" style="stroke:#1F618D;stroke-width:1;"/><text fill="#000000" font-family="sans-serif" font-size="13" lengthAdjust="spacing" textLength="96.2495" x="320.83" y="817.5838">&#171;observed by&#187;</text></g><!--link SimpleTicketController to SimpleBookingService--><g class="link" data-entity-1="SimpleTicketController" data-entity-2="SimpleBookingService" data-source-line="126" data-uid="lnk27" id="link_SimpleTicketController_SimpleBookingService"><path codeLine="126" d="M1365.61,174.0169 C1326.46,220.1269 1230.1633,333.5331 1179.7133,392.9531" fill="none" id="SimpleTicketController-to-SimpleBookingService" style="stroke:#1F618D;stroke-width:1;stroke-dasharray:7,7;"/><polygon fill="#1F618D" points="1175.83,397.5269,1184.7042,393.2551,1179.0661,393.7154,1178.6058,388.0773,1175.83,397.5269" style="stroke:#1F618D;stroke-width:1;"/></g><!--link SimpleTicketController to SimplePaymentService--><g class="link" data-entity-1="SimpleTicketController" data-entity-2="SimplePaymentService" data-source-line="127" data-uid="lnk28" id="link_SimpleTicketController_SimplePaymentService"><path codeLine="127" d="M1381.83,174.0169 C1381.83,222.3369 1381.83,343.5669 1381.83,399.6469" fill="none" id="SimpleTicketController-to-SimplePaymentService" style="stroke:#1F618D;stroke-width:1;stroke-dasharray:7,7;"/><polygon fill="#1F618D" points="1381.83,405.6469,1385.83,396.6469,1381.83,400.6469,1377.83,396.6469,1381.83,405.6469" style="stroke:#1F618D;stroke-width:1;"/></g><!--link SimpleTicketController to SimpleNotificationService--><g class="link" data-entity-1="SimpleTicketController" data-entity-2="SimpleNotificationService" data-source-line="128" data-uid="lnk29" id="link_SimpleTicketController_SimpleNotificationService"><path codeLine="128" d="M1399.5,174.0169 C1442.14,220.1269 1547.1567,333.7014 1602.0967,393.1214" fill="none" id="SimpleTicketController-to-SimpleNotificationService" style="stroke:#1F618D;stroke-width:1;stroke-dasharray:7,7;"/><polygon fill="#1F618D" points="1606.17,397.5269,1602.997,388.2031,1602.7756,393.8557,1597.1231,393.6342,1606.17,397.5269" style="stroke:#1F618D;stroke-width:1;"/></g><!--link SimpleEventApprovalController to SimpleEventApprovalService--><g class="link" data-entity-1="SimpleEventApprovalController" data-entity-2="SimpleEventApprovalService" data-source-line="129" data-uid="lnk30" id="link_SimpleEventApprovalController_SimpleEventApprovalService"><path codeLine="129" d="M1911.83,174.0169 C1911.83,220.1269 1911.83,332.1069 1911.83,391.5269" fill="none" id="SimpleEventApprovalController-to-SimpleEventApprovalService" style="stroke:#1F618D;stroke-width:1;stroke-dasharray:7,7;"/><polygon fill="#1F618D" points="1911.83,397.5269,1915.83,388.5269,1911.83,392.5269,1907.83,388.5269,1911.83,397.5269" style="stroke:#1F618D;stroke-width:1;"/></g><!--link PasswordResetController to SimplePasswordResetService--><g class="link" data-entity-1="PasswordResetController" data-entity-2="SimplePasswordResetService" data-source-line="130" data-uid="lnk31" id="link_PasswordResetController_SimplePasswordResetService"><path codeLine="130" d="M2188.83,174.0169 C2188.83,220.1269 2188.83,332.1069 2188.83,391.5269" fill="none" id="PasswordResetController-to-SimplePasswordResetService" style="stroke:#1F618D;stroke-width:1;stroke-dasharray:7,7;"/><polygon fill="#1F618D" points="2188.83,397.5269,2192.83,388.5269,2188.83,392.5269,2184.83,388.5269,2188.83,397.5269" style="stroke:#1F618D;stroke-width:1;"/></g><!--SRC=[ZLLRRzem57xFhx3OmpgrLABhrWbLI43BqxeXw9wHISx0muazsw7Bglxt7SU6sYIKlQ3uNBzp-p3CS23t3uzpqYLZJhKcTuok5CsJzwJRxPAvgJWhLlOxqHjMI8ewajQMpmaX8vfkLagKHJOMN2Zoxduq-JGPMOrG6IWllRg-wGq_edIeb7ZomjxaS-_B7GedeZ1pzXT8xofv2T8OYyugTmwZwydDLR9c6P2KgPH3uc4-Y0ouhb4wR3yqg1hWESj8dx32sE-2ve0lRHJMP0MGKyOZYH8yDf4OxWbhYOHqImrL2qdDEfAd2gY1R44DYZFyD2m7goXbrgf0mAZbOiMAimzrVbWnRK3jNXhCr2D0qKlYwxlVGc6Q1TOTYn1be5F5f66YGBc1FyObJAaN1QO8wm0sbLA9BUKBRQWfTMHUOeiNGN9NYlE07VnVa9eGzoDBDz0276mzORH6-FCM299MkVLhKHsRX4CfIvMkgVOmKrgam4EOtuHXFvdlKGDi0vgfPDpr7BIcAmWwZd2imr88laUHKxKPwXbgmjnVxJBWpt_aPN91imoN9AxTbeejoMLO-Zx-l9HIAFFW8PxEeikb7UE90WzdyBAxpJceBKiXlCuvooM7aH1uwYklTq3imYjSdzq-N10FvuByDbKuBLDl4cg2rhcuKxSLKLpRwYbbsHjkuSmZty8ggkbkPVQ0Wb1xgt4DZjT1MYqFajPtFFHN5cNrXrGRxDiHNDMXej44Hnepoo1HO7SPZs83nLdDVorCOwpsWXJmjDZntuVNYNvVraDImKJTNUyLpw-SDznY2hfad9aghaD3aOLDrmV3SSd6oFz8oXnKk473qgnVDLuuyzpPKDIzQaXTenpo8yfeF0sRgCU1rYEVWTi3lMRIOQ__bJgz3Zu6f9FJekfu9kyJDnPD1grMdZUHGChAsZYlOqOfOg6iE1OiOhS-KP02snvDlUUZFi7_gMDM1wo2D83JjSQ9HtLvEJZSaZwvlHNkaP5bDHWaxIEfVTiuuxHzp0MdxLj887bp5GBVjbjEZkn81B5vgVy0]--></g></svg>