<svg xmlns="http://www.w3.org/2000/svg" xmlns:xlink="http://www.w3.org/1999/xlink" contentStyleType="text/css" data-diagram-type="SEQUENCE" height="1265px" preserveAspectRatio="none" style="width:1662px;height:1265px;background:#FFFFFF;" version="1.1" viewBox="0 0 1662 1265" width="1662px" zoomAndPan="magnify"><title>Admin Event Approval Flow</title><defs/><g><text fill="#000000" font-family="sans-serif" font-size="14" font-weight="bold" lengthAdjust="spacing" textLength="217.3623" x="718.7314" y="27.9951">Admin Event Approval Flow</text><g><title>Admin</title><rect fill="#000000" fill-opacity="0.00000" height="1066.5156" width="8" x="26.4321" y="118.5938"/><line style="stroke:#181818;stroke-width:0.5;stroke-dasharray:5,5;" x1="30" x2="30" y1="118.5938" y2="1185.1094"/></g><g><title>Browser</title><rect fill="#000000" fill-opacity="0.00000" height="1066.5156" width="8" x="202.5918" y="118.5938"/><line style="stroke:#181818;stroke-width:0.5;stroke-dasharray:5,5;" x1="206.0723" x2="206.0723" y1="118.5938" y2="1185.1094"/></g><g><title>Route .web.php.</title><rect fill="#000000" fill-opacity="0.00000" height="1066.5156" width="8" x="494.082" y="118.5938"/><line style="stroke:#181818;stroke-width:0.5;stroke-dasharray:5,5;" x1="497.7373" x2="497.7373" y1="118.5938" y2="1185.1094"/></g><g><title>SimpleEventApprovalController</title><rect fill="#000000" fill-opacity="0.00000" height="1066.5156" width="8" x="686.1812" y="118.5938"/><line style="stroke:#181818;stroke-width:0.5;stroke-dasharray:5,5;" x1="689.4268" x2="689.4268" y1="118.5938" y2="1185.1094"/></g><g><title>DB .events. notifications.</title><rect fill="#000000" fill-opacity="0.00000" height="1066.5156" width="8" x="1090.501" y="118.5938"/><line style="stroke:#181818;stroke-width:0.5;stroke-dasharray:5,5;" x1="1093.5757" x2="1093.5757" y1="118.5938" y2="1185.1094"/></g><g><title>SimpleNotificationService</title><rect fill="#000000" fill-opacity="0.00000" height="1066.5156" width="8" x="1492.3579" y="118.5938"/><line style="stroke:#181818;stroke-width:0.5;stroke-dasharray:5,5;" x1="1495.4209" x2="1495.4209" y1="118.5938" y2="1185.1094"/></g><g><title>View</title><rect fill="#000000" fill-opacity="0.00000" height="1066.5156" width="8" x="1623.0601" y="118.5938"/><line style="stroke:#181818;stroke-width:0.5;stroke-dasharray:5,5;" x1="1626.2949" x2="1626.2949" y1="118.5938" y2="1185.1094"/></g><g class="participant participant-head" data-participant="A"><text fill="#000000" font-family="sans-serif" font-size="14" lengthAdjust="spacing" textLength="44.8643" x="5" y="115.292">Admin</text><ellipse cx="30.4321" cy="50.7969" fill="#E2E2F0" rx="8" ry="8" style="stroke:#181818;stroke-width:0.5;"/><path d="M30.4321,58.7969 L30.4321,85.7969 M17.4321,66.7969 L43.4321,66.7969 M30.4321,85.7969 L17.4321,100.7969 M30.4321,85.7969 L43.4321,100.7969" fill="none" style="stroke:#181818;stroke-width:0.5;"/></g><g class="participant participant-tail" data-participant="A"><text fill="#000000" font-family="sans-serif" font-size="14" lengthAdjust="spacing" textLength="44.8643" x="5" y="1197.1045">Admin</text><ellipse cx="30.4321" cy="1208.9063" fill="#E2E2F0" rx="8" ry="8" style="stroke:#181818;stroke-width:0.5;"/><path d="M30.4321,1216.9063 L30.4321,1243.9063 M17.4321,1224.9063 L43.4321,1224.9063 M30.4321,1243.9063 L17.4321,1258.9063 M30.4321,1243.9063 L43.4321,1258.9063" fill="none" style="stroke:#181818;stroke-width:0.5;"/></g><g class="participant participant-head" data-participant="B"><rect fill="#E2E2F0" height="30.2969" rx="2.5" ry="2.5" style="stroke:#181818;stroke-width:0.5;" width="71.0391" x="171.0723" y="87.2969"/><text fill="#000000" font-family="sans-serif" font-size="14" lengthAdjust="spacing" textLength="57.0391" x="178.0723" y="107.292">Browser</text></g><g class="participant participant-tail" data-participant="B"><rect fill="#E2E2F0" height="30.2969" rx="2.5" ry="2.5" style="stroke:#181818;stroke-width:0.5;" width="71.0391" x="171.0723" y="1184.1094"/><text fill="#000000" font-family="sans-serif" font-size="14" lengthAdjust="spacing" textLength="57.0391" x="178.0723" y="1204.1045">Browser</text></g><g class="participant participant-head" data-participant="R"><rect fill="#E2E2F0" height="30.2969" rx="2.5" ry="2.5" style="stroke:#181818;stroke-width:0.5;" width="130.6895" x="432.7373" y="87.2969"/><text fill="#000000" font-family="sans-serif" font-size="14" lengthAdjust="spacing" textLength="116.6895" x="439.7373" y="107.292">Route (web.php)</text></g><g class="participant participant-tail" data-participant="R"><rect fill="#E2E2F0" height="30.2969" rx="2.5" ry="2.5" style="stroke:#181818;stroke-width:0.5;" width="130.6895" x="432.7373" y="1184.1094"/><text fill="#000000" font-family="sans-serif" font-size="14" lengthAdjust="spacing" textLength="116.6895" x="439.7373" y="1204.1045">Route (web.php)</text></g><g class="participant participant-head" data-participant="SEAC"><rect fill="#E2E2F0" height="30.2969" rx="2.5" ry="2.5" style="stroke:#181818;stroke-width:0.5;" width="233.5088" x="573.4268" y="87.2969"/><text fill="#000000" font-family="sans-serif" font-size="14" lengthAdjust="spacing" textLength="219.5088" x="580.4268" y="107.292">SimpleEventApprovalController</text></g><g class="participant participant-tail" data-participant="SEAC"><rect fill="#E2E2F0" height="30.2969" rx="2.5" ry="2.5" style="stroke:#181818;stroke-width:0.5;" width="233.5088" x="573.4268" y="1184.1094"/><text fill="#000000" font-family="sans-serif" font-size="14" lengthAdjust="spacing" textLength="219.5088" x="580.4268" y="1204.1045">SimpleEventApprovalController</text></g><g class="participant participant-head" data-participant="DB"><text fill="#000000" font-family="sans-serif" font-size="14" lengthAdjust="spacing" textLength="177.8506" x="1002.5757" y="115.292">DB (events, notifications)</text><path d="M1076.501,66.2969 C1076.501,56.2969 1094.501,56.2969 1094.501,56.2969 C1094.501,56.2969 1112.501,56.2969 1112.501,66.2969 L1112.501,92.2969 C1112.501,102.2969 1094.501,102.2969 1094.501,102.2969 C1094.501,102.2969 1076.501,102.2969 1076.501,92.2969 L1076.501,66.2969" fill="#E2E2F0" style="stroke:#181818;stroke-width:0.5;"/><path d="M1076.501,66.2969 C1076.501,76.2969 1094.501,76.2969 1094.501,76.2969 C1094.501,76.2969 1112.501,76.2969 1112.501,66.2969" fill="none" style="stroke:#181818;stroke-width:0.5;"/></g><g class="participant participant-tail" data-participant="DB"><text fill="#000000" font-family="sans-serif" font-size="14" lengthAdjust="spacing" textLength="177.8506" x="1002.5757" y="1197.1045">DB (events, notifications)</text><path d="M1076.501,1210.4063 C1076.501,1200.4063 1094.501,1200.4063 1094.501,1200.4063 C1094.501,1200.4063 1112.501,1200.4063 1112.501,1210.4063 L1112.501,1236.4063 C1112.501,1246.4063 1094.501,1246.4063 1094.501,1246.4063 C1094.501,1246.4063 1076.501,1246.4063 1076.501,1236.4063 L1076.501,1210.4063" fill="#E2E2F0" style="stroke:#181818;stroke-width:0.5;"/><path d="M1076.501,1210.4063 C1076.501,1220.4063 1094.501,1220.4063 1094.501,1220.4063 C1094.501,1220.4063 1112.501,1220.4063 1112.501,1210.4063" fill="none" style="stroke:#181818;stroke-width:0.5;"/></g><g class="participant participant-head" data-participant="SNS"><rect fill="#E2E2F0" height="30.2969" rx="2.5" ry="2.5" style="stroke:#181818;stroke-width:0.5;" width="193.874" x="1399.4209" y="87.2969"/><text fill="#000000" font-family="sans-serif" font-size="14" lengthAdjust="spacing" textLength="179.874" x="1406.4209" y="107.292">SimpleNotificationService</text></g><g class="participant participant-tail" data-participant="SNS"><rect fill="#E2E2F0" height="30.2969" rx="2.5" ry="2.5" style="stroke:#181818;stroke-width:0.5;" width="193.874" x="1399.4209" y="1184.1094"/><text fill="#000000" font-family="sans-serif" font-size="14" lengthAdjust="spacing" textLength="179.874" x="1406.4209" y="1204.1045">SimpleNotificationService</text></g><g class="participant participant-head" data-participant="V"><rect fill="#E2E2F0" height="30.2969" rx="2.5" ry="2.5" style="stroke:#181818;stroke-width:0.5;" width="47.5303" x="1603.2949" y="87.2969"/><text fill="#000000" font-family="sans-serif" font-size="14" lengthAdjust="spacing" textLength="33.5303" x="1610.2949" y="107.292">View</text></g><g class="participant participant-tail" data-participant="V"><rect fill="#E2E2F0" height="30.2969" rx="2.5" ry="2.5" style="stroke:#181818;stroke-width:0.5;" width="47.5303" x="1603.2949" y="1184.1094"/><text fill="#000000" font-family="sans-serif" font-size="14" lengthAdjust="spacing" textLength="33.5303" x="1610.2949" y="1204.1045">View</text></g><rect fill="#EEEEEE" height="3" style="stroke:#EEEEEE;stroke-width:1;" width="1655.8252" x="0" y="149.1602"/><line style="stroke:#000000;stroke-width:1;" x1="0" x2="1655.8252" y1="149.1602" y2="149.1602"/><line style="stroke:#000000;stroke-width:1;" x1="0" x2="1655.8252" y1="152.1602" y2="152.1602"/><rect fill="#EEEEEE" height="23.1328" style="stroke:#000000;stroke-width:2;" width="109.4434" x="773.1909" y="138.5938"/><text fill="#000000" font-family="sans-serif" font-size="13" font-weight="bold" lengthAdjust="spacing" textLength="90.9175" x="779.1909" y="154.6606">List pending</text><g class="message" data-participant-1="A" data-participant-2="B"><polygon fill="#181818" points="194.5918,188.8594,204.5918,192.8594,194.5918,196.8594,198.5918,192.8594" style="stroke:#181818;stroke-width:1;"/><line style="stroke:#181818;stroke-width:1;" x1="30.4321" x2="200.5918" y1="192.8594" y2="192.8594"/><text fill="#000000" font-family="sans-serif" font-size="13" lengthAdjust="spacing" textLength="152.1597" x="37.4321" y="187.7935">Open /admin/approvals</text></g><g class="message" data-participant-1="B" data-participant-2="R"><polygon fill="#181818" points="486.082,217.9922,496.082,221.9922,486.082,225.9922,490.082,221.9922" style="stroke:#181818;stroke-width:1;"/><line style="stroke:#181818;stroke-width:1;" x1="206.5918" x2="492.082" y1="221.9922" y2="221.9922"/><text fill="#000000" font-family="sans-serif" font-size="13" lengthAdjust="spacing" textLength="143.6665" x="213.5918" y="216.9263">GET /admin/approvals</text></g><g class="message" data-participant-1="R" data-participant-2="SEAC"><polygon fill="#181818" points="678.1812,247.125,688.1812,251.125,678.1812,255.125,682.1812,251.125" style="stroke:#181818;stroke-width:1;"/><line style="stroke:#181818;stroke-width:1;" x1="498.082" x2="684.1812" y1="251.125" y2="251.125"/><text fill="#000000" font-family="sans-serif" font-size="13" lengthAdjust="spacing" textLength="45.938" x="505.082" y="246.0591">index()</text></g><g class="message" data-participant-1="SEAC" data-participant-2="DB"><polygon fill="#181818" points="1082.501,276.2578,1092.501,280.2578,1082.501,284.2578,1086.501,280.2578" style="stroke:#181818;stroke-width:1;"/><line style="stroke:#181818;stroke-width:1;" x1="690.1812" x2="1088.501" y1="280.2578" y2="280.2578"/><text fill="#000000" font-family="sans-serif" font-size="13" lengthAdjust="spacing" textLength="380.3198" x="697.1812" y="275.1919">SELECT * FROM events WHERE approval_status='pending'</text></g><g class="message" data-participant-1="DB" data-participant-2="SEAC"><polygon fill="#181818" points="701.1812,305.3906,691.1812,309.3906,701.1812,313.3906,697.1812,309.3906" style="stroke:#181818;stroke-width:1;"/><line style="stroke:#181818;stroke-width:1;stroke-dasharray:2,2;" x1="695.1812" x2="1093.501" y1="309.3906" y2="309.3906"/><text fill="#000000" font-family="sans-serif" font-size="13" lengthAdjust="spacing" textLength="53.9424" x="707.1812" y="304.3247">events[]</text></g><g class="message" data-participant-1="SEAC" data-participant-2="V"><polygon fill="#181818" points="1615.0601,334.5234,1625.0601,338.5234,1615.0601,342.5234,1619.0601,338.5234" style="stroke:#181818;stroke-width:1;"/><line style="stroke:#181818;stroke-width:1;" x1="690.1812" x2="1621.0601" y1="338.5234" y2="338.5234"/><text fill="#000000" font-family="sans-serif" font-size="13" lengthAdjust="spacing" textLength="173.0752" x="697.1812" y="333.4575">approvals/index.blade.php</text></g><g class="message" data-participant-1="V" data-participant-2="B"><polygon fill="#181818" points="217.5918,363.6563,207.5918,367.6563,217.5918,371.6563,213.5918,367.6563" style="stroke:#181818;stroke-width:1;"/><line style="stroke:#181818;stroke-width:1;stroke-dasharray:2,2;" x1="211.5918" x2="1626.0601" y1="367.6563" y2="367.6563"/><text fill="#000000" font-family="sans-serif" font-size="13" lengthAdjust="spacing" textLength="94.9038" x="223.5918" y="362.5903">200 OK (table)</text></g><rect fill="#EEEEEE" height="3" style="stroke:#EEEEEE;stroke-width:1;" width="1655.8252" x="0" y="396.2227"/><line style="stroke:#000000;stroke-width:1;" x1="0" x2="1655.8252" y1="396.2227" y2="396.2227"/><line style="stroke:#000000;stroke-width:1;" x1="0" x2="1655.8252" y1="399.2227" y2="399.2227"/><rect fill="#EEEEEE" height="23.1328" style="stroke:#000000;stroke-width:2;" width="89.6133" x="783.106" y="385.6563"/><text fill="#000000" font-family="sans-serif" font-size="13" font-weight="bold" lengthAdjust="spacing" textLength="71.0874" x="789.106" y="401.7231">Show one</text><g class="message" data-participant-1="A" data-participant-2="B"><polygon fill="#181818" points="194.5918,435.9219,204.5918,439.9219,194.5918,443.9219,198.5918,439.9219" style="stroke:#181818;stroke-width:1;"/><line style="stroke:#181818;stroke-width:1;" x1="30.4321" x2="200.5918" y1="439.9219" y2="439.9219"/><text fill="#000000" font-family="sans-serif" font-size="13" lengthAdjust="spacing" textLength="129.1113" x="37.4321" y="434.856">Click pending event</text></g><g class="message" data-participant-1="B" data-participant-2="R"><polygon fill="#181818" points="486.082,465.0547,496.082,469.0547,486.082,473.0547,490.082,469.0547" style="stroke:#181818;stroke-width:1;"/><line style="stroke:#181818;stroke-width:1;" x1="206.5918" x2="492.082" y1="469.0547" y2="469.0547"/><text fill="#000000" font-family="sans-serif" font-size="13" lengthAdjust="spacing" textLength="201.6143" x="213.5918" y="463.9888">GET /admin/approvals/{event}</text></g><g class="message" data-participant-1="R" data-participant-2="SEAC"><polygon fill="#181818" points="678.1812,494.1875,688.1812,498.1875,678.1812,502.1875,682.1812,498.1875" style="stroke:#181818;stroke-width:1;"/><line style="stroke:#181818;stroke-width:1;" x1="498.082" x2="684.1812" y1="498.1875" y2="498.1875"/><text fill="#000000" font-family="sans-serif" font-size="13" lengthAdjust="spacing" textLength="92.8535" x="505.082" y="493.1216">show(eventId)</text></g><g class="message" data-participant-1="SEAC" data-participant-2="DB"><polygon fill="#181818" points="1082.501,523.3203,1092.501,527.3203,1082.501,531.3203,1086.501,527.3203" style="stroke:#181818;stroke-width:1;"/><line style="stroke:#181818;stroke-width:1;" x1="690.1812" x2="1088.501" y1="527.3203" y2="527.3203"/><text fill="#000000" font-family="sans-serif" font-size="13" lengthAdjust="spacing" textLength="235.606" x="697.1812" y="522.2544">SELECT * FROM events WHERE id=?</text></g><g class="message" data-participant-1="DB" data-participant-2="SEAC"><polygon fill="#181818" points="701.1812,552.4531,691.1812,556.4531,701.1812,560.4531,697.1812,556.4531" style="stroke:#181818;stroke-width:1;"/><line style="stroke:#181818;stroke-width:1;stroke-dasharray:2,2;" x1="695.1812" x2="1093.501" y1="556.4531" y2="556.4531"/><text fill="#000000" font-family="sans-serif" font-size="13" lengthAdjust="spacing" textLength="37.0259" x="707.1812" y="551.3872">event</text></g><g class="message" data-participant-1="SEAC" data-participant-2="V"><polygon fill="#181818" points="1615.0601,581.5859,1625.0601,585.5859,1615.0601,589.5859,1619.0601,585.5859" style="stroke:#181818;stroke-width:1;"/><line style="stroke:#181818;stroke-width:1;" x1="690.1812" x2="1621.0601" y1="585.5859" y2="585.5859"/><text fill="#000000" font-family="sans-serif" font-size="13" lengthAdjust="spacing" textLength="170.8789" x="697.1812" y="580.52">approvals/show.blade.php</text></g><g class="message" data-participant-1="V" data-participant-2="B"><polygon fill="#181818" points="217.5918,610.7188,207.5918,614.7188,217.5918,618.7188,213.5918,614.7188" style="stroke:#181818;stroke-width:1;"/><line style="stroke:#181818;stroke-width:1;stroke-dasharray:2,2;" x1="211.5918" x2="1626.0601" y1="614.7188" y2="614.7188"/><text fill="#000000" font-family="sans-serif" font-size="13" lengthAdjust="spacing" textLength="273.2666" x="223.5918" y="609.6528">200 OK (details + approve/reject buttons)</text></g><rect fill="#EEEEEE" height="3" style="stroke:#EEEEEE;stroke-width:1;" width="1655.8252" x="0" y="643.2852"/><line style="stroke:#000000;stroke-width:1;" x1="0" x2="1655.8252" y1="643.2852" y2="643.2852"/><line style="stroke:#000000;stroke-width:1;" x1="0" x2="1655.8252" y1="646.2852" y2="646.2852"/><rect fill="#EEEEEE" height="23.1328" style="stroke:#000000;stroke-width:2;" width="79.8315" x="787.9968" y="632.7188"/><text fill="#000000" font-family="sans-serif" font-size="13" font-weight="bold" lengthAdjust="spacing" textLength="61.3057" x="793.9968" y="648.7856">Approve</text><g class="message" data-participant-1="A" data-participant-2="B"><polygon fill="#181818" points="194.5918,682.9844,204.5918,686.9844,194.5918,690.9844,198.5918,686.9844" style="stroke:#181818;stroke-width:1;"/><line style="stroke:#181818;stroke-width:1;" x1="30.4321" x2="200.5918" y1="686.9844" y2="686.9844"/><text fill="#000000" font-family="sans-serif" font-size="13" lengthAdjust="spacing" textLength="101.4546" x="37.4321" y="681.9185">Click "Approve"</text></g><g class="message" data-participant-1="B" data-participant-2="R"><polygon fill="#181818" points="486.082,712.1172,496.082,716.1172,486.082,720.1172,490.082,716.1172" style="stroke:#181818;stroke-width:1;"/><line style="stroke:#181818;stroke-width:1;" x1="206.5918" x2="492.082" y1="716.1172" y2="716.1172"/><text fill="#000000" font-family="sans-serif" font-size="13" lengthAdjust="spacing" textLength="267.4902" x="213.5918" y="711.0513">POST /admin/approvals/{event}/approve</text></g><g class="message" data-participant-1="R" data-participant-2="SEAC"><polygon fill="#181818" points="678.1812,741.25,688.1812,745.25,678.1812,749.25,682.1812,745.25" style="stroke:#181818;stroke-width:1;"/><line style="stroke:#181818;stroke-width:1;" x1="498.082" x2="684.1812" y1="745.25" y2="745.25"/><text fill="#000000" font-family="sans-serif" font-size="13" lengthAdjust="spacing" textLength="112.7153" x="505.082" y="740.1841">approve(eventId)</text></g><g class="message" data-participant-1="SEAC" data-participant-2="DB"><polygon fill="#181818" points="1082.501,770.3828,1092.501,774.3828,1082.501,778.3828,1086.501,774.3828" style="stroke:#181818;stroke-width:1;"/><line style="stroke:#181818;stroke-width:1;" x1="690.1812" x2="1088.501" y1="774.3828" y2="774.3828"/><text fill="#000000" font-family="sans-serif" font-size="13" lengthAdjust="spacing" textLength="316.2529" x="697.1812" y="769.3169">UPDATE events SET approval_status='approved'</text></g><g class="message" data-participant-1="DB" data-participant-2="SEAC"><polygon fill="#181818" points="701.1812,799.5156,691.1812,803.5156,701.1812,807.5156,697.1812,803.5156" style="stroke:#181818;stroke-width:1;"/><line style="stroke:#181818;stroke-width:1;stroke-dasharray:2,2;" x1="695.1812" x2="1093.501" y1="803.5156" y2="803.5156"/><text fill="#000000" font-family="sans-serif" font-size="13" lengthAdjust="spacing" textLength="15.4819" x="707.1812" y="798.4497">ok</text></g><g class="message" data-participant-1="SEAC" data-participant-2="SNS"><polygon fill="#181818" points="1484.3579,828.6484,1494.3579,832.6484,1484.3579,836.6484,1488.3579,832.6484" style="stroke:#181818;stroke-width:1;"/><line style="stroke:#181818;stroke-width:1;" x1="690.1812" x2="1490.3579" y1="832.6484" y2="832.6484"/><text fill="#000000" font-family="sans-serif" font-size="13" lengthAdjust="spacing" textLength="286.457" x="697.1812" y="827.5825">notifyEventApproved(ownerUserId, eventId)</text></g><g class="message" data-participant-1="SNS" data-participant-2="DB"><polygon fill="#181818" points="1105.501,857.7813,1095.501,861.7813,1105.501,865.7813,1101.501,861.7813" style="stroke:#181818;stroke-width:1;"/><line style="stroke:#181818;stroke-width:1;" x1="1099.501" x2="1495.3579" y1="861.7813" y2="861.7813"/><text fill="#000000" font-family="sans-serif" font-size="13" lengthAdjust="spacing" textLength="377.8569" x="1111.501" y="856.7153">INSERT notifications (user_id, type='approval', unread=1)</text></g><g class="message" data-participant-1="SEAC" data-participant-2="B"><polygon fill="#181818" points="217.5918,886.9141,207.5918,890.9141,217.5918,894.9141,213.5918,890.9141" style="stroke:#181818;stroke-width:1;"/><line style="stroke:#181818;stroke-width:1;stroke-dasharray:2,2;" x1="211.5918" x2="689.1812" y1="890.9141" y2="890.9141"/><text fill="#000000" font-family="sans-serif" font-size="13" lengthAdjust="spacing" textLength="231.3594" x="223.5918" y="885.8481">302 redirect back (flash: Approved)</text></g><rect fill="#EEEEEE" height="3" style="stroke:#EEEEEE;stroke-width:1;" width="1655.8252" x="0" y="919.4805"/><line style="stroke:#000000;stroke-width:1;" x1="0" x2="1655.8252" y1="919.4805" y2="919.4805"/><line style="stroke:#000000;stroke-width:1;" x1="0" x2="1655.8252" y1="922.4805" y2="922.4805"/><rect fill="#EEEEEE" height="23.1328" style="stroke:#000000;stroke-width:2;" width="100.3979" x="777.7136" y="908.9141"/><text fill="#000000" font-family="sans-serif" font-size="13" font-weight="bold" lengthAdjust="spacing" textLength="81.8721" x="783.7136" y="924.981">Reject (alt)</text><g class="message" data-participant-1="A" data-participant-2="B"><polygon fill="#181818" points="194.5918,959.1797,204.5918,963.1797,194.5918,967.1797,198.5918,963.1797" style="stroke:#181818;stroke-width:1;"/><line style="stroke:#181818;stroke-width:1;" x1="30.4321" x2="200.5918" y1="963.1797" y2="963.1797"/><text fill="#000000" font-family="sans-serif" font-size="13" lengthAdjust="spacing" textLength="87.9531" x="37.4321" y="958.1138">Click "Reject"</text></g><g class="message" data-participant-1="B" data-participant-2="R"><polygon fill="#181818" points="486.082,988.3125,496.082,992.3125,486.082,996.3125,490.082,992.3125" style="stroke:#181818;stroke-width:1;"/><line style="stroke:#181818;stroke-width:1;" x1="206.5918" x2="492.082" y1="992.3125" y2="992.3125"/><text fill="#000000" font-family="sans-serif" font-size="13" lengthAdjust="spacing" textLength="251.2275" x="213.5918" y="987.2466">POST /admin/approvals/{event}/reject</text></g><g class="message" data-participant-1="R" data-participant-2="SEAC"><polygon fill="#181818" points="678.1812,1017.4453,688.1812,1021.4453,678.1812,1025.4453,682.1812,1021.4453" style="stroke:#181818;stroke-width:1;"/><line style="stroke:#181818;stroke-width:1;" x1="498.082" x2="684.1812" y1="1021.4453" y2="1021.4453"/><text fill="#000000" font-family="sans-serif" font-size="13" lengthAdjust="spacing" textLength="155.8921" x="505.082" y="1016.3794">reject(eventId, reason?)</text></g><g class="message" data-participant-1="SEAC" data-participant-2="DB"><polygon fill="#181818" points="1082.501,1046.5781,1092.501,1050.5781,1082.501,1054.5781,1086.501,1050.5781" style="stroke:#181818;stroke-width:1;"/><line style="stroke:#181818;stroke-width:1;" x1="690.1812" x2="1088.501" y1="1050.5781" y2="1050.5781"/><text fill="#000000" font-family="sans-serif" font-size="13" lengthAdjust="spacing" textLength="378.3203" x="697.1812" y="1045.5122">UPDATE events SET approval_status='rejected', reason=?</text></g><g class="message" data-participant-1="DB" data-participant-2="SEAC"><polygon fill="#181818" points="701.1812,1075.7109,691.1812,1079.7109,701.1812,1083.7109,697.1812,1079.7109" style="stroke:#181818;stroke-width:1;"/><line style="stroke:#181818;stroke-width:1;stroke-dasharray:2,2;" x1="695.1812" x2="1093.501" y1="1079.7109" y2="1079.7109"/><text fill="#000000" font-family="sans-serif" font-size="13" lengthAdjust="spacing" textLength="15.4819" x="707.1812" y="1074.645">ok</text></g><g class="message" data-participant-1="SEAC" data-participant-2="SNS"><polygon fill="#181818" points="1484.3579,1104.8438,1494.3579,1108.8438,1484.3579,1112.8438,1488.3579,1108.8438" style="stroke:#181818;stroke-width:1;"/><line style="stroke:#181818;stroke-width:1;" x1="690.1812" x2="1490.3579" y1="1108.8438" y2="1108.8438"/><text fill="#000000" font-family="sans-serif" font-size="13" lengthAdjust="spacing" textLength="280.9536" x="697.1812" y="1103.7778">notifyEventRejected(ownerUserId, eventId)</text></g><g class="message" data-participant-1="SNS" data-participant-2="DB"><polygon fill="#181818" points="1105.501,1133.9766,1095.501,1137.9766,1105.501,1141.9766,1101.501,1137.9766" style="stroke:#181818;stroke-width:1;"/><line style="stroke:#181818;stroke-width:1;" x1="1099.501" x2="1495.3579" y1="1137.9766" y2="1137.9766"/><text fill="#000000" font-family="sans-serif" font-size="13" lengthAdjust="spacing" textLength="157.6821" x="1111.501" y="1132.9106">INSERT notifications (...)</text></g><g class="message" data-participant-1="SEAC" data-participant-2="B"><polygon fill="#181818" points="217.5918,1163.1094,207.5918,1167.1094,217.5918,1171.1094,213.5918,1167.1094" style="stroke:#181818;stroke-width:1;"/><line style="stroke:#181818;stroke-width:1;stroke-dasharray:2,2;" x1="211.5918" x2="689.1812" y1="1167.1094" y2="1167.1094"/><text fill="#000000" font-family="sans-serif" font-size="13" lengthAdjust="spacing" textLength="225.856" x="223.5918" y="1162.0435">302 redirect back (flash: Rejected)</text></g><!--SRC=[dPDTRzCm58RlyokEUjCKkhQCkqXXIjeC9aOx9LsvG6XoupDgviMHxJPCYF-E4oSbtK9LkFJvU8_VvzYQQOuGq4UMGRJ3J4EGvrBi28TBBWh78QaMiYuW2W8d9rApbEN4rFP2AGg5ibUcmiDKBBOQmIrmFSet-Q0gYGzB4lQOSwp6DbEd8jDIS5vh9b4mTIZHP4qKGcyMWejbkHf29ZIxPodHJ6JAoi_2Blrvgp11kMCfMkrvSbY-ObXKcPNZ-3vSCwKXnuoox1lulXF0sJi8FLYO68n9IMHCwcih9oopiGVle-NBP5mcIoyUi8pY3tVWbASoEZEAINGTJPVm2YxZnIUm1k7pXoYEeD6uKvhehVBxzONwZc5njbUrFL- -xcLNthvLZQkPepKd5CjTEAkgqmm-dqnWyH5SmvVZe7ATR4G18iEsuobdwSCUHJNhgD_npwhcLzktChfsTrVqPFUC-XSTHhjTbXEEcQIe2UCANjSzE9Ru7LCDwwtMvHkg_Dk7s66_LsTwU-itY-Jltki8jXdKeMuCjpUpO1ar_XE3zSNkwtxwRFdYOIzathHdVyPJwriXTKMHeRmrN_MA3k7F_7dIZB-Q9r6yFFnLu6vDnnqpBVefn-O2XFU7iCqa4kg_QKnOL6ydvo2HCbbn9GQRUy-9sdWDLsefnvQyIxWUTA2swLD9spMsGTj8mtbepaI9xEAVWLiT0xoHUFuSZw2Fwzx_HJyQZKvbsumQ_0O0]--></g></svg>