<svg xmlns="http://www.w3.org/2000/svg" xmlns:xlink="http://www.w3.org/1999/xlink" contentStyleType="text/css" data-diagram-type="SEQUENCE" height="713px" preserveAspectRatio="none" style="width:1045px;height:713px;background:#FFFFFF;" version="1.1" viewBox="0 0 1045 713" width="1045px" zoomAndPan="magnify"><title>Browse Events &amp; View Details</title><defs/><g><text fill="#000000" font-family="sans-serif" font-size="14" font-weight="bold" lengthAdjust="spacing" textLength="236.0859" x="400.7129" y="27.9951">Browse Events &amp; View Details</text><g><title>User</title><rect fill="#000000" fill-opacity="0.00000" height="514.125" width="8" x="19.9551" y="118.5938"/><line style="stroke:#181818;stroke-width:0.5;stroke-dasharray:5,5;" x1="23" x2="23" y1="118.5938" y2="632.7188"/></g><g><title>Browser</title><rect fill="#000000" fill-opacity="0.00000" height="514.125" width="8" x="144.4131" y="118.5938"/><line style="stroke:#181818;stroke-width:0.5;stroke-dasharray:5,5;" x1="147.8936" x2="147.8936" y1="118.5938" y2="632.7188"/></g><g><title>Route .web.php.</title><rect fill="#000000" fill-opacity="0.00000" height="514.125" width="8" x="279.7383" y="118.5938"/><line style="stroke:#181818;stroke-width:0.5;stroke-dasharray:5,5;" x1="283.3936" x2="283.3936" y1="118.5938" y2="632.7188"/></g><g><title>EventController</title><rect fill="#000000" fill-opacity="0.00000" height="514.125" width="8" x="416.7227" y="118.5938"/><line style="stroke:#181818;stroke-width:0.5;stroke-dasharray:5,5;" x1="420.083" x2="420.083" y1="118.5938" y2="632.7188"/></g><g><title>DB .events.</title><rect fill="#000000" fill-opacity="0.00000" height="514.125" width="8" x="927.5181" y="118.5938"/><line style="stroke:#181818;stroke-width:0.5;stroke-dasharray:5,5;" x1="931.0547" x2="931.0547" y1="118.5938" y2="632.7188"/></g><g><title>View</title><rect fill="#000000" fill-opacity="0.00000" height="514.125" width="8" x="1005.7466" y="118.5938"/><line style="stroke:#181818;stroke-width:0.5;stroke-dasharray:5,5;" x1="1008.9814" x2="1008.9814" y1="118.5938" y2="632.7188"/></g><g class="participant participant-head" data-participant="U"><text fill="#000000" font-family="sans-serif" font-size="14" lengthAdjust="spacing" textLength="31.9102" x="5" y="115.292">User</text><ellipse cx="23.9551" cy="50.7969" fill="#E2E2F0" rx="8" ry="8" style="stroke:#181818;stroke-width:0.5;"/><path d="M23.9551,58.7969 L23.9551,85.7969 M10.9551,66.7969 L36.9551,66.7969 M23.9551,85.7969 L10.9551,100.7969 M23.9551,85.7969 L36.9551,100.7969" fill="none" style="stroke:#181818;stroke-width:0.5;"/></g><g class="participant participant-tail" data-participant="U"><text fill="#000000" font-family="sans-serif" font-size="14" lengthAdjust="spacing" textLength="31.9102" x="5" y="644.7139">User</text><ellipse cx="23.9551" cy="656.5156" fill="#E2E2F0" rx="8" ry="8" style="stroke:#181818;stroke-width:0.5;"/><path d="M23.9551,664.5156 L23.9551,691.5156 M10.9551,672.5156 L36.9551,672.5156 M23.9551,691.5156 L10.9551,706.5156 M23.9551,691.5156 L36.9551,706.5156" fill="none" style="stroke:#181818;stroke-width:0.5;"/></g><g class="participant participant-head" data-participant="B"><rect fill="#E2E2F0" height="30.2969" rx="2.5" ry="2.5" style="stroke:#181818;stroke-width:0.5;" width="71.0391" x="112.8936" y="87.2969"/><text fill="#000000" font-family="sans-serif" font-size="14" lengthAdjust="spacing" textLength="57.0391" x="119.8936" y="107.292">Browser</text></g><g class="participant participant-tail" data-participant="B"><rect fill="#E2E2F0" height="30.2969" rx="2.5" ry="2.5" style="stroke:#181818;stroke-width:0.5;" width="71.0391" x="112.8936" y="631.7188"/><text fill="#000000" font-family="sans-serif" font-size="14" lengthAdjust="spacing" textLength="57.0391" x="119.8936" y="651.7139">Browser</text></g><g class="participant participant-head" data-participant="R"><rect fill="#E2E2F0" height="30.2969" rx="2.5" ry="2.5" style="stroke:#181818;stroke-width:0.5;" width="130.6895" x="218.3936" y="87.2969"/><text fill="#000000" font-family="sans-serif" font-size="14" lengthAdjust="spacing" textLength="116.6895" x="225.3936" y="107.292">Route (web.php)</text></g><g class="participant participant-tail" data-participant="R"><rect fill="#E2E2F0" height="30.2969" rx="2.5" ry="2.5" style="stroke:#181818;stroke-width:0.5;" width="130.6895" x="218.3936" y="631.7188"/><text fill="#000000" font-family="sans-serif" font-size="14" lengthAdjust="spacing" textLength="116.6895" x="225.3936" y="651.7139">Route (web.php)</text></g><g class="participant participant-head" data-participant="EC"><rect fill="#E2E2F0" height="30.2969" rx="2.5" ry="2.5" style="stroke:#181818;stroke-width:0.5;" width="123.2793" x="359.083" y="87.2969"/><text fill="#000000" font-family="sans-serif" font-size="14" lengthAdjust="spacing" textLength="109.2793" x="366.083" y="107.292">EventController</text></g><g class="participant participant-tail" data-participant="EC"><rect fill="#E2E2F0" height="30.2969" rx="2.5" ry="2.5" style="stroke:#181818;stroke-width:0.5;" width="123.2793" x="359.083" y="631.7188"/><text fill="#000000" font-family="sans-serif" font-size="14" lengthAdjust="spacing" textLength="109.2793" x="366.083" y="651.7139">EventController</text></g><g class="participant participant-head" data-participant="DB"><text fill="#000000" font-family="sans-serif" font-size="14" lengthAdjust="spacing" textLength="82.9268" x="887.0547" y="115.292">DB (events)</text><path d="M913.5181,66.2969 C913.5181,56.2969 931.5181,56.2969 931.5181,56.2969 C931.5181,56.2969 949.5181,56.2969 949.5181,66.2969 L949.5181,92.2969 C949.5181,102.2969 931.5181,102.2969 931.5181,102.2969 C931.5181,102.2969 913.5181,102.2969 913.5181,92.2969 L913.5181,66.2969" fill="#E2E2F0" style="stroke:#181818;stroke-width:0.5;"/><path d="M913.5181,66.2969 C913.5181,76.2969 931.5181,76.2969 931.5181,76.2969 C931.5181,76.2969 949.5181,76.2969 949.5181,66.2969" fill="none" style="stroke:#181818;stroke-width:0.5;"/></g><g class="participant participant-tail" data-participant="DB"><text fill="#000000" font-family="sans-serif" font-size="14" lengthAdjust="spacing" textLength="82.9268" x="887.0547" y="644.7139">DB (events)</text><path d="M913.5181,658.0156 C913.5181,648.0156 931.5181,648.0156 931.5181,648.0156 C931.5181,648.0156 949.5181,648.0156 949.5181,658.0156 L949.5181,684.0156 C949.5181,694.0156 931.5181,694.0156 931.5181,694.0156 C931.5181,694.0156 913.5181,694.0156 913.5181,684.0156 L913.5181,658.0156" fill="#E2E2F0" style="stroke:#181818;stroke-width:0.5;"/><path d="M913.5181,658.0156 C913.5181,668.0156 931.5181,668.0156 931.5181,668.0156 C931.5181,668.0156 949.5181,668.0156 949.5181,658.0156" fill="none" style="stroke:#181818;stroke-width:0.5;"/></g><g class="participant participant-head" data-participant="V"><rect fill="#E2E2F0" height="30.2969" rx="2.5" ry="2.5" style="stroke:#181818;stroke-width:0.5;" width="47.5303" x="985.9814" y="87.2969"/><text fill="#000000" font-family="sans-serif" font-size="14" lengthAdjust="spacing" textLength="33.5303" x="992.9814" y="107.292">View</text></g><g class="participant participant-tail" data-participant="V"><rect fill="#E2E2F0" height="30.2969" rx="2.5" ry="2.5" style="stroke:#181818;stroke-width:0.5;" width="47.5303" x="985.9814" y="631.7188"/><text fill="#000000" font-family="sans-serif" font-size="14" lengthAdjust="spacing" textLength="33.5303" x="992.9814" y="651.7139">View</text></g><rect fill="#EEEEEE" height="3" style="stroke:#EEEEEE;stroke-width:1;" width="1038.5117" x="0" y="149.1602"/><line style="stroke:#000000;stroke-width:1;" x1="0" x2="1038.5117" y1="149.1602" y2="149.1602"/><line style="stroke:#000000;stroke-width:1;" x1="0" x2="1038.5117" y1="152.1602" y2="152.1602"/><rect fill="#EEEEEE" height="23.1328" style="stroke:#000000;stroke-width:2;" width="45.2178" x="496.647" y="138.5938"/><text fill="#000000" font-family="sans-serif" font-size="13" font-weight="bold" lengthAdjust="spacing" textLength="26.6919" x="502.647" y="154.6606">List</text><g class="message" data-participant-1="U" data-participant-2="B"><polygon fill="#181818" points="136.4131,188.8594,146.4131,192.8594,136.4131,196.8594,140.4131,192.8594" style="stroke:#181818;stroke-width:1;"/><line style="stroke:#181818;stroke-width:1;" x1="23.9551" x2="142.4131" y1="192.8594" y2="192.8594"/><text fill="#000000" font-family="sans-serif" font-size="13" lengthAdjust="spacing" textLength="87.0327" x="30.9551" y="187.7935">Open /events</text></g><g class="message" data-participant-1="B" data-participant-2="R"><polygon fill="#181818" points="271.7383,217.9922,281.7383,221.9922,271.7383,225.9922,275.7383,221.9922" style="stroke:#181818;stroke-width:1;"/><line style="stroke:#181818;stroke-width:1;" x1="148.4131" x2="277.7383" y1="221.9922" y2="221.9922"/><text fill="#000000" font-family="sans-serif" font-size="13" lengthAdjust="spacing" textLength="78.5396" x="155.4131" y="216.9263">GET /events</text></g><g class="message" data-participant-1="R" data-participant-2="EC"><polygon fill="#181818" points="408.7227,247.125,418.7227,251.125,408.7227,255.125,412.7227,251.125" style="stroke:#181818;stroke-width:1;"/><line style="stroke:#181818;stroke-width:1;" x1="283.7383" x2="414.7227" y1="251.125" y2="251.125"/><text fill="#000000" font-family="sans-serif" font-size="13" lengthAdjust="spacing" textLength="45.938" x="290.7383" y="246.0591">index()</text></g><g class="message" data-participant-1="EC" data-participant-2="DB"><polygon fill="#181818" points="919.5181,276.2578,929.5181,280.2578,919.5181,284.2578,923.5181,280.2578" style="stroke:#181818;stroke-width:1;"/><line style="stroke:#181818;stroke-width:1;" x1="420.7227" x2="925.5181" y1="280.2578" y2="280.2578"/><text fill="#000000" font-family="sans-serif" font-size="13" lengthAdjust="spacing" textLength="486.7954" x="427.7227" y="275.1919">SELECT * FROM events WHERE approval_status='approved' AND visible=1</text></g><g class="message" data-participant-1="DB" data-participant-2="EC"><polygon fill="#181818" points="431.7227,305.3906,421.7227,309.3906,431.7227,313.3906,427.7227,309.3906" style="stroke:#181818;stroke-width:1;"/><line style="stroke:#181818;stroke-width:1;stroke-dasharray:2,2;" x1="425.7227" x2="930.5181" y1="309.3906" y2="309.3906"/><text fill="#000000" font-family="sans-serif" font-size="13" lengthAdjust="spacing" textLength="53.9424" x="437.7227" y="304.3247">events[]</text></g><g class="message" data-participant-1="EC" data-participant-2="V"><polygon fill="#181818" points="997.7466,334.5234,1007.7466,338.5234,997.7466,342.5234,1001.7466,338.5234" style="stroke:#181818;stroke-width:1;"/><line style="stroke:#181818;stroke-width:1;" x1="420.7227" x2="1003.7466" y1="338.5234" y2="338.5234"/><text fill="#000000" font-family="sans-serif" font-size="13" lengthAdjust="spacing" textLength="258.4448" x="427.7227" y="333.4575">render events/index.blade.php (events)</text></g><g class="message" data-participant-1="V" data-participant-2="B"><polygon fill="#181818" points="159.4131,363.6563,149.4131,367.6563,159.4131,371.6563,155.4131,367.6563" style="stroke:#181818;stroke-width:1;"/><line style="stroke:#181818;stroke-width:1;stroke-dasharray:2,2;" x1="153.4131" x2="1008.7466" y1="367.6563" y2="367.6563"/><text fill="#000000" font-family="sans-serif" font-size="13" lengthAdjust="spacing" textLength="81.0723" x="165.4131" y="362.5903">200 OK (list)</text></g><rect fill="#EEEEEE" height="3" style="stroke:#EEEEEE;stroke-width:1;" width="1038.5117" x="0" y="396.2227"/><line style="stroke:#000000;stroke-width:1;" x1="0" x2="1038.5117" y1="396.2227" y2="396.2227"/><line style="stroke:#000000;stroke-width:1;" x1="0" x2="1038.5117" y1="399.2227" y2="399.2227"/><rect fill="#EEEEEE" height="23.1328" style="stroke:#000000;stroke-width:2;" width="58.0845" x="490.2136" y="385.6563"/><text fill="#000000" font-family="sans-serif" font-size="13" font-weight="bold" lengthAdjust="spacing" textLength="39.5586" x="496.2136" y="401.7231">Show</text><g class="message" data-participant-1="U" data-participant-2="B"><polygon fill="#181818" points="136.4131,435.9219,146.4131,439.9219,136.4131,443.9219,140.4131,439.9219" style="stroke:#181818;stroke-width:1;"/><line style="stroke:#181818;stroke-width:1;" x1="23.9551" x2="142.4131" y1="439.9219" y2="439.9219"/><text fill="#000000" font-family="sans-serif" font-size="13" lengthAdjust="spacing" textLength="100.458" x="30.9551" y="434.856">Click one event</text></g><g class="message" data-participant-1="B" data-participant-2="R"><polygon fill="#181818" points="271.7383,465.0547,281.7383,469.0547,271.7383,473.0547,275.7383,469.0547" style="stroke:#181818;stroke-width:1;"/><line style="stroke:#181818;stroke-width:1;" x1="148.4131" x2="277.7383" y1="469.0547" y2="469.0547"/><text fill="#000000" font-family="sans-serif" font-size="13" lengthAdjust="spacing" textLength="111.3252" x="155.4131" y="463.9888">GET /events/{id}</text></g><g class="message" data-participant-1="R" data-participant-2="EC"><polygon fill="#181818" points="408.7227,494.1875,418.7227,498.1875,408.7227,502.1875,412.7227,498.1875" style="stroke:#181818;stroke-width:1;"/><line style="stroke:#181818;stroke-width:1;" x1="283.7383" x2="414.7227" y1="498.1875" y2="498.1875"/><text fill="#000000" font-family="sans-serif" font-size="13" lengthAdjust="spacing" textLength="55.6055" x="290.7383" y="493.1216">show(id)</text></g><g class="message" data-participant-1="EC" data-participant-2="DB"><polygon fill="#181818" points="919.5181,523.3203,929.5181,527.3203,919.5181,531.3203,923.5181,527.3203" style="stroke:#181818;stroke-width:1;"/><line style="stroke:#181818;stroke-width:1;" x1="420.7227" x2="925.5181" y1="527.3203" y2="527.3203"/><text fill="#000000" font-family="sans-serif" font-size="13" lengthAdjust="spacing" textLength="235.606" x="427.7227" y="522.2544">SELECT * FROM events WHERE id=?</text></g><g class="message" data-participant-1="DB" data-participant-2="EC"><polygon fill="#181818" points="431.7227,552.4531,421.7227,556.4531,431.7227,560.4531,427.7227,556.4531" style="stroke:#181818;stroke-width:1;"/><line style="stroke:#181818;stroke-width:1;stroke-dasharray:2,2;" x1="425.7227" x2="930.5181" y1="556.4531" y2="556.4531"/><text fill="#000000" font-family="sans-serif" font-size="13" lengthAdjust="spacing" textLength="37.0259" x="437.7227" y="551.3872">event</text></g><g class="message" data-participant-1="EC" data-participant-2="V"><polygon fill="#181818" points="997.7466,581.5859,1007.7466,585.5859,997.7466,589.5859,1001.7466,585.5859" style="stroke:#181818;stroke-width:1;"/><line style="stroke:#181818;stroke-width:1;" x1="420.7227" x2="1003.7466" y1="585.5859" y2="585.5859"/><text fill="#000000" font-family="sans-serif" font-size="13" lengthAdjust="spacing" textLength="249.4756" x="427.7227" y="580.52">render events/show.blade.php (event)</text></g><g class="message" data-participant-1="V" data-participant-2="B"><polygon fill="#181818" points="159.4131,610.7188,149.4131,614.7188,159.4131,618.7188,155.4131,614.7188" style="stroke:#181818;stroke-width:1;"/><line style="stroke:#181818;stroke-width:1;stroke-dasharray:2,2;" x1="153.4131" x2="1008.7466" y1="614.7188" y2="614.7188"/><text fill="#000000" font-family="sans-serif" font-size="13" lengthAdjust="spacing" textLength="105.2886" x="165.4131" y="609.6528">200 OK (details)</text></g><!--SRC=[ZP9VIyCm5CNVyoakUt2ji3_wMAXYswZWTD1jzK54qkN2Wg49IROAudUtRSfqEi7NS-yzv_n2d70I8J6gjWXqXvMpS0A5m1eoT4n8ImXREsLWPT40ix0YcXadraApoi70dvf1EqeEHxdQEeIWndAiDphiLlB3bIunLPKpIihUXQQ4CyTArZGQP0a4sDNozzcFZBPfDoW8YMEO2UiWZiaAHXUGH33NMC746v2a5VC8RkXoh-MjHjC8HCNnBGW9JLibQsuNT4RJ9Pp2TJw_1xyFZxSqfy2qDch7v8jrp6rjFFG2yY5SFMIm4rQK4kCpqjGVzG7UuEcvJoWYCDXacdumwGgCIyauji-rnoP5Pz4KEfzEONu7WMmWmmvtiL7rTznKYlKhg0gzwJ7YoRlW7r_Ojd481Fydj-3nvI-clu1QwryyHt2u_sVX9m00]--></g></svg>