<svg xmlns="http://www.w3.org/2000/svg" xmlns:xlink="http://www.w3.org/1999/xlink" contentStyleType="text/css" data-diagram-type="DESCRIPTION" height="403px" preserveAspectRatio="none" style="width:3107px;height:403px;background:#FFFFFF;" version="1.1" viewBox="0 0 3107 403" width="3107px" zoomAndPan="magnify"><title>EMTS - Use Case Diagram (Simplified Overview)</title><defs/><g><g class="title" data-source-line="1"><text fill="#000000" font-family="sans-serif" font-size="14" font-weight="bold" lengthAdjust="spacing" textLength="377.8291" x="1357.5854" y="22.9951">EMTS - Use Case Diagram (Simplified Overview)</text></g><!--cluster Event Management & Ticketing System (EMTS)--><g class="cluster" data-entity="Event Management . Ticketing System .EMTS." data-source-line="7" data-uid="ent0005" id="cluster_Event Management . Ticketing System .EMTS."><rect fill="none" height="215.4" rx="2.5" ry="2.5" style="stroke:#181818;stroke-width:1;" width="3094" x="7" y="182.0969"/><text fill="#000000" font-family="sans-serif" font-size="14" font-weight="bold" lengthAdjust="spacing" textLength="371.6494" x="1368.1753" y="197.092">Event Management &amp; Ticketing System (EMTS)</text></g><!--entity UC1--><g class="entity" data-entity="UC1" data-source-line="9" data-uid="ent0006" id="entity_UC1"><ellipse cx="995.9954" cy="238.13" fill="#F1F1F1" rx="75.3154" ry="17.4631" style="stroke:#181818;stroke-width:0.5;"/><text fill="#000000" font-family="sans-serif" font-size="14" lengthAdjust="spacing" textLength="119.4922" x="936.2493" y="242.7784">Register Account</text></g><!--entity UC2--><g class="entity" data-entity="UC2" data-source-line="10" data-uid="ent0007" id="entity_UC2"><ellipse cx="1174.0045" cy="238.1318" fill="#F1F1F1" rx="67.4245" ry="15.8849" style="stroke:#181818;stroke-width:0.5;"/><text fill="#000000" font-family="sans-serif" font-size="14" lengthAdjust="spacing" textLength="99.8115" x="1124.0987" y="242.7802">Login / Logout</text></g><!--entity UC3--><g class="entity" data-entity="UC3" data-source-line="11" data-uid="ent0008" id="entity_UC3"><ellipse cx="1344.9996" cy="238.1308" fill="#F1F1F1" rx="68.7196" ry="16.1439" style="stroke:#181818;stroke-width:0.5;"/><text fill="#000000" font-family="sans-serif" font-size="14" lengthAdjust="spacing" textLength="103.1338" x="1293.4327" y="242.7792">Browse Events</text></g><!--entity UC4--><g class="entity" data-entity="UC4" data-source-line="12" data-uid="ent0009" id="entity_UC4"><ellipse cx="102.9981" cy="238.1305" fill="#F1F1F1" rx="80.1681" ry="18.4336" style="stroke:#181818;stroke-width:0.5;"/><text fill="#000000" font-family="sans-serif" font-size="14" lengthAdjust="spacing" textLength="131.0723" x="37.4619" y="242.7789">View Event Details</text></g><!--entity UC5--><g class="entity" data-entity="UC5" data-source-line="13" data-uid="ent0010" id="entity_UC5"><ellipse cx="289.9994" cy="238.1308" fill="#F1F1F1" rx="71.8194" ry="16.7639" style="stroke:#181818;stroke-width:0.5;"/><text fill="#000000" font-family="sans-serif" font-size="14" lengthAdjust="spacing" textLength="110.9268" x="234.536" y="242.7792">Purchase Ticket</text></g><!--entity UC6--><g class="entity" data-entity="UC6" data-source-line="14" data-uid="ent0011" id="entity_UC6"><ellipse cx="461.9963" cy="238.1241" fill="#F1F1F1" rx="65.2863" ry="15.4573" style="stroke:#181818;stroke-width:0.5;"/><text fill="#000000" font-family="sans-serif" font-size="14" lengthAdjust="spacing" textLength="94.2266" x="414.8831" y="242.7726">Cancel Ticket</text></g><!--entity UC7--><g class="entity" data-entity="UC7" data-source-line="15" data-uid="ent0012" id="entity_UC7"><ellipse cx="634.9996" cy="238.1228" fill="#F1F1F1" rx="72.4296" ry="16.8859" style="stroke:#181818;stroke-width:0.5;"/><text fill="#000000" font-family="sans-serif" font-size="14" lengthAdjust="spacing" textLength="112.4375" x="578.7809" y="242.7712">View My Tickets</text></g><!--entity UC8--><g class="entity" data-entity="UC8" data-source-line="16" data-uid="ent0013" id="entity_UC8"><ellipse cx="2050.0011" cy="238.1291" fill="#F1F1F1" rx="87.2611" ry="19.8522" style="stroke:#181818;stroke-width:0.5;"/><text fill="#000000" font-family="sans-serif" font-size="14" lengthAdjust="spacing" textLength="147.5127" x="1976.2447" y="242.7775">Receive Notifications</text></g><!--entity UC9--><g class="entity" data-entity="UC9" data-source-line="17" data-uid="ent0014" id="entity_UC9"><ellipse cx="813.9995" cy="238.1228" fill="#F1F1F1" rx="71.6295" ry="16.7259" style="stroke:#181818;stroke-width:0.5;"/><text fill="#000000" font-family="sans-serif" font-size="14" lengthAdjust="spacing" textLength="110.4551" x="758.772" y="242.7712">Reset Password</text></g><!--entity UC10--><g class="entity" data-entity="UC10" data-source-line="19" data-uid="ent0015" id="entity_UC10"><ellipse cx="2235.9979" cy="238.1305" fill="#F1F1F1" rx="64.2179" ry="15.2436" style="stroke:#181818;stroke-width:0.5;"/><text fill="#000000" font-family="sans-serif" font-size="14" lengthAdjust="spacing" textLength="91.3828" x="2190.3065" y="242.7789">Create Event</text></g><!--entity UC11--><g class="entity" data-entity="UC11" data-source-line="20" data-uid="ent0016" id="entity_UC11"><ellipse cx="1501.9969" cy="238.1305" fill="#F1F1F1" rx="53.6769" ry="14.5236" style="stroke:#181818;stroke-width:0.5;"/><text fill="#000000" font-family="sans-serif" font-size="14" lengthAdjust="spacing" textLength="71.668" x="1466.1629" y="242.7789">Edit Event</text></g><!--entity UC12--><g class="entity" data-entity="UC12" data-source-line="21" data-uid="ent0017" id="entity_UC12"><ellipse cx="1654.9998" cy="238.1288" fill="#F1F1F1" rx="63.9098" ry="15.182" style="stroke:#181818;stroke-width:0.5;"/><text fill="#000000" font-family="sans-serif" font-size="14" lengthAdjust="spacing" textLength="90.5557" x="1609.722" y="242.7773">Delete Event</text></g><!--entity UC13--><g class="entity" data-entity="UC13" data-source-line="22" data-uid="ent0018" id="entity_UC13"><ellipse cx="1841.0035" cy="238.1236" fill="#F1F1F1" rx="86.8335" ry="19.7667" style="stroke:#181818;stroke-width:0.5;"/><text fill="#000000" font-family="sans-serif" font-size="14" lengthAdjust="spacing" textLength="146.5352" x="1767.736" y="242.772">View Event Statistics</text></g><!--entity UC14--><g class="entity" data-entity="UC14" data-source-line="24" data-uid="ent0019" id="entity_UC14"><ellipse cx="2992.0023" cy="238.1313" fill="#F1F1F1" rx="93.1223" ry="21.0245" style="stroke:#181818;stroke-width:0.5;"/><text fill="#000000" font-family="sans-serif" font-size="14" lengthAdjust="spacing" textLength="160.7744" x="2911.6151" y="242.7798">Approve / Reject Event</text></g><!--entity UC15--><g class="entity" data-entity="UC15" data-source-line="25" data-uid="ent0020" id="entity_UC15"><ellipse cx="2402.0029" cy="238.1295" fill="#F1F1F1" rx="67.2129" ry="15.8426" style="stroke:#181818;stroke-width:0.5;"/><text fill="#000000" font-family="sans-serif" font-size="14" lengthAdjust="spacing" textLength="99.2646" x="2352.3706" y="242.7779">Manage Users</text></g><!--entity UC16--><g class="entity" data-entity="UC16" data-source-line="26" data-uid="ent0021" id="entity_UC16"><ellipse cx="2575.0045" cy="238.1318" fill="#F1F1F1" rx="70.3245" ry="16.4649" style="stroke:#181818;stroke-width:0.5;"/><text fill="#000000" font-family="sans-serif" font-size="14" lengthAdjust="spacing" textLength="107.1943" x="2521.4073" y="242.7802">View Payments</text></g><!--entity UC17--><g class="entity" data-entity="UC17" data-source-line="27" data-uid="ent0022" id="entity_UC17"><ellipse cx="2771.9994" cy="238.1307" fill="#F1F1F1" rx="92.1694" ry="20.8339" style="stroke:#181818;stroke-width:0.5;"/><text fill="#000000" font-family="sans-serif" font-size="14" lengthAdjust="spacing" textLength="158.6348" x="2692.682" y="242.7792">View System Statistics</text></g><!--entity UC18--><g class="entity" data-entity="UC18" data-source-line="29" data-uid="ent0023" id="entity_UC18"><ellipse cx="570.0015" cy="358.8252" fill="#F1F1F1" rx="75.5415" ry="17.5083" style="stroke:#181818;stroke-width:0.5;"/><text fill="#000000" font-family="sans-serif" font-size="14" lengthAdjust="spacing" textLength="120.0391" x="509.982" y="363.4736">Send Notification</text></g><!--entity UC19--><g class="entity" data-entity="UC19" data-source-line="30" data-uid="ent0024" id="entity_UC19"><ellipse cx="264.0039" cy="358.8317" fill="#F1F1F1" rx="101.3739" ry="22.6748" style="stroke:#181818;stroke-width:0.5;"/><text fill="#000000" font-family="sans-serif" font-size="14" lengthAdjust="spacing" textLength="179.0811" x="174.4634" y="363.4801">Update Ticket Availability</text></g><!--entity User--><g class="entity" data-entity="User" data-source-line="3" data-uid="ent0002" id="entity_User"><ellipse cx="814.0013" cy="51.2969" fill="#F1F1F1" rx="8" ry="8" style="stroke:#181818;stroke-width:0.5;"/><path d="M814.0013,59.2969 L814.0013,86.2969 M801.0013,67.2969 L827.0013,67.2969 M814.0013,86.2969 L801.0013,101.2969 M814.0013,86.2969 L827.0013,101.2969" fill="none" style="stroke:#181818;stroke-width:0.5;"/><text fill="#000000" font-family="sans-serif" font-size="14" lengthAdjust="spacing" textLength="109.6826" x="759.16" y="115.792">User / Attendee</text></g><!--entity Organizer--><g class="entity" data-entity="Organizer" data-source-line="4" data-uid="ent0003" id="entity_Organizer"><ellipse cx="1840.9992" cy="51.2969" fill="#F1F1F1" rx="8" ry="8" style="stroke:#181818;stroke-width:0.5;"/><path d="M1840.9992,59.2969 L1840.9992,86.2969 M1827.9992,67.2969 L1853.9992,67.2969 M1840.9992,86.2969 L1827.9992,101.2969 M1840.9992,86.2969 L1853.9992,101.2969" fill="none" style="stroke:#181818;stroke-width:0.5;"/><text fill="#000000" font-family="sans-serif" font-size="14" lengthAdjust="spacing" textLength="113.2783" x="1784.36" y="115.792">Event Organizer</text></g><!--entity Admin--><g class="entity" data-entity="Admin" data-source-line="5" data-uid="ent0004" id="entity_Admin"><ellipse cx="2575.0021" cy="51.2969" fill="#F1F1F1" rx="8" ry="8" style="stroke:#181818;stroke-width:0.5;"/><path d="M2575.0021,59.2969 L2575.0021,86.2969 M2562.0021,67.2969 L2588.0021,67.2969 M2575.0021,86.2969 L2562.0021,101.2969 M2575.0021,86.2969 L2588.0021,101.2969" fill="none" style="stroke:#181818;stroke-width:0.5;"/><text fill="#000000" font-family="sans-serif" font-size="14" lengthAdjust="spacing" textLength="44.8643" x="2552.57" y="115.792">Admin</text></g><!--link User to UC1--><g class="link" data-entity-1="User" data-entity-2="UC1" data-source-line="34" data-uid="lnk25" id="link_User_UC1"><path d="M858.06,119.5169 C896.14,151.9869 944.7651,193.4331 972.6551,217.2231" fill="none" id="User-to-UC1" style="stroke:#181818;stroke-width:1;"/><polygon fill="#181818" points="977.22,221.1169,972.9686,212.2329,973.4159,217.872,967.7768,218.3194,977.22,221.1169" style="stroke:#181818;stroke-width:1;"/></g><!--link User to UC2--><g class="link" data-entity-1="User" data-entity-2="UC2" data-source-line="35" data-uid="lnk26" id="link_User_UC2"><path d="M869.28,94.9769 C926.32,109.6669 1016.9,136.4969 1089,174.0969 C1114.74,187.5169 1136.518,204.4797 1152.918,218.4897" fill="none" id="User-to-UC2" style="stroke:#181818;stroke-width:1;"/><polygon fill="#181818" points="1157.48,222.3869,1153.2351,213.4998,1153.6783,219.1392,1148.0389,219.5824,1157.48,222.3869" style="stroke:#181818;stroke-width:1;"/></g><!--link User to UC3--><g class="link" data-entity-1="User" data-entity-2="UC3" data-source-line="36" data-uid="lnk27" id="link_User_UC3"><path d="M869.03,85.7869 C955.43,93.4469 1126.71,115.2869 1259,174.0969 C1285.89,186.0569 1308.0749,203.4814 1324.4149,218.0014" fill="none" id="User-to-UC3" style="stroke:#181818;stroke-width:1;"/><polygon fill="#181818" points="1328.9,221.9869,1324.8294,213.0186,1325.1624,218.6656,1319.5154,218.9987,1328.9,221.9869" style="stroke:#181818;stroke-width:1;"/></g><!--link User to UC4--><g class="link" data-entity-1="User" data-entity-2="UC4" data-source-line="37" data-uid="lnk28" id="link_User_UC4"><path d="M758.78,82.5669 C648.96,85.4469 396.87,100.2869 201,174.0969 C172.04,185.0069 147.4374,201.7278 128.5074,216.3578" fill="none" id="User-to-UC4" style="stroke:#181818;stroke-width:1;"/><polygon fill="#181818" points="123.76,220.0269,133.3272,217.6883,127.7162,216.9693,128.4351,211.3584,123.76,220.0269" style="stroke:#181818;stroke-width:1;"/></g><!--link User to UC5--><g class="link" data-entity-1="User" data-entity-2="UC5" data-source-line="38" data-uid="lnk29" id="link_User_UC5"><path d="M758.93,86.4069 C674.19,94.8369 508.07,117.6269 379,174.0969 C351.77,186.0169 329.0335,203.1332 311.9935,217.6032" fill="none" id="User-to-UC5" style="stroke:#181818;stroke-width:1;"/><polygon fill="#181818" points="307.42,221.4869,316.8694,218.7103,311.2312,218.2505,311.6911,212.6123,307.42,221.4869" style="stroke:#181818;stroke-width:1;"/></g><!--link User to UC6--><g class="link" data-entity-1="User" data-entity-2="UC6" data-source-line="39" data-uid="lnk30" id="link_User_UC6"><path d="M758.82,95.2969 C702.9,110.0669 614.92,136.8269 545,174.0969 C519.61,187.6269 498.2506,204.7102 482.2906,218.7102" fill="none" id="User-to-UC6" style="stroke:#181818;stroke-width:1;"/><polygon fill="#181818" points="477.78,222.6669,487.1836,219.739,481.5388,219.3697,481.9081,213.7249,477.78,222.6669" style="stroke:#181818;stroke-width:1;"/></g><!--link User to UC7--><g class="link" data-entity-1="User" data-entity-2="UC7" data-source-line="40" data-uid="lnk31" id="link_User_UC7"><path d="M770.67,119.5169 C733.01,152.1669 684.854,193.9072 657.544,217.5772" fill="none" id="User-to-UC7" style="stroke:#181818;stroke-width:1;"/><polygon fill="#181818" points="653.01,221.5069,662.4308,218.635,656.7884,218.2321,657.1912,212.5896,653.01,221.5069" style="stroke:#181818;stroke-width:1;"/></g><!--link User to UC8--><g class="link" data-entity-1="User" data-entity-2="UC8" data-source-line="41" data-uid="lnk32" id="link_User_UC8"><path d="M869.21,83.1269 C1067.25,87.8669 1741.03,108.5469 1945,174.0969 C1975.36,183.8569 2001.346,200.2762 2021.676,215.1362" fill="none" id="User-to-UC8" style="stroke:#181818;stroke-width:1;"/><polygon fill="#181818" points="2026.52,218.6769,2021.6145,210.1366,2022.4834,215.7263,2016.8936,216.5952,2026.52,218.6769" style="stroke:#181818;stroke-width:1;"/></g><!--link User to UC9--><g class="link" data-entity-1="User" data-entity-2="UC9" data-source-line="42" data-uid="lnk33" id="link_User_UC9"><path d="M814,119.5169 C814,151.9869 814,191.3269 814,215.1169" fill="none" id="User-to-UC9" style="stroke:#181818;stroke-width:1;"/><polygon fill="#181818" points="814,221.1169,818,212.1169,814,216.1169,810,212.1169,814,221.1169" style="stroke:#181818;stroke-width:1;"/></g><!--link Organizer to UC10--><g class="link" data-entity-1="Organizer" data-entity-2="UC10" data-source-line="44" data-uid="lnk34" id="link_Organizer_UC10"><path d="M1897.96,88.9269 C1964.08,99.1269 2074.34,122.7969 2155,174.0969 C2178.75,189.2069 2199.4615,205.799 2215.3415,219.249" fill="none" id="Organizer-to-UC10" style="stroke:#181818;stroke-width:1;"/><polygon fill="#181818" points="2219.92,223.1269,2215.6375,214.2578,2216.1046,219.8953,2210.4671,220.3624,2219.92,223.1269" style="stroke:#181818;stroke-width:1;"/></g><!--link Organizer to UC11--><g class="link" data-entity-1="Organizer" data-entity-2="UC11" data-source-line="45" data-uid="lnk35" id="link_Organizer_UC11"><path d="M1784.1,94.7669 C1728.11,108.9069 1641.44,134.9769 1574,174.0969 C1550.58,187.6869 1531.9361,205.1798 1518.4761,219.2598" fill="none" id="Organizer-to-UC11" style="stroke:#181818;stroke-width:1;"/><polygon fill="#181818" points="1514.33,223.5969,1523.4405,219.8553,1517.7851,219.9827,1517.6577,214.3272,1514.33,223.5969" style="stroke:#181818;stroke-width:1;"/></g><!--link Organizer to UC12--><g class="link" data-entity-1="Organizer" data-entity-2="UC12" data-source-line="46" data-uid="lnk36" id="link_Organizer_UC12"><path d="M1795.97,119.5169 C1755.98,152.8769 1704.2867,196.0027 1676.4967,219.1927" fill="none" id="Organizer-to-UC12" style="stroke:#181818;stroke-width:1;"/><polygon fill="#181818" points="1671.89,223.0369,1681.3629,220.3417,1675.729,219.8334,1676.2373,214.1994,1671.89,223.0369" style="stroke:#181818;stroke-width:1;"/></g><!--link Organizer to UC13--><g class="link" data-entity-1="Organizer" data-entity-2="UC13" data-source-line="47" data-uid="lnk37" id="link_Organizer_UC13"><path d="M1841,119.5169 C1841,150.7269 1841,187.8469 1841,212.2569" fill="none" id="Organizer-to-UC13" style="stroke:#181818;stroke-width:1;"/><polygon fill="#181818" points="1841,218.2569,1845,209.2569,1841,213.2569,1837,209.2569,1841,218.2569" style="stroke:#181818;stroke-width:1;"/></g><!--link Organizer to UC8--><g class="link" data-entity-1="Organizer" data-entity-2="UC8" data-source-line="48" data-uid="lnk38" id="link_Organizer_UC8"><path d="M1891.59,119.5169 C1933.88,150.9069 1987.5523,190.7607 2020.3423,215.1007" fill="none" id="Organizer-to-UC8" style="stroke:#181818;stroke-width:1;"/><polygon fill="#181818" points="2025.16,218.6769,2020.3175,210.1007,2021.1452,215.6967,2015.5492,216.5244,2025.16,218.6769" style="stroke:#181818;stroke-width:1;"/><text fill="#000000" font-family="sans-serif" font-size="13" lengthAdjust="spacing" textLength="145.6597" x="1952" y="162.1638">receive event updates</text></g><!--link Admin to UC14--><g class="link" data-entity-1="Admin" data-entity-2="UC14" data-source-line="50" data-uid="lnk39" id="link_Admin_UC14"><path d="M2597.58,86.8569 C2649.24,98.4669 2779.49,130.0369 2882,174.0969 C2910.51,186.3569 2935.9102,201.0338 2957.5302,214.6238" fill="none" id="Admin-to-UC14" style="stroke:#181818;stroke-width:1;"/><polygon fill="#181818" points="2962.61,217.8169,2957.119,209.6407,2958.3768,215.156,2952.8616,216.4138,2962.61,217.8169" style="stroke:#181818;stroke-width:1;"/></g><!--link Admin to UC15--><g class="link" data-entity-1="Admin" data-entity-2="UC15" data-source-line="51" data-uid="lnk40" id="link_Admin_UC15"><path d="M2552.38,102.2369 C2517.03,133.9469 2453.9763,190.5003 2422.8863,218.3903" fill="none" id="Admin-to-UC15" style="stroke:#181818;stroke-width:1;"/><polygon fill="#181818" points="2418.42,222.3969,2427.7904,219.3645,2422.1419,219.0581,2422.4483,213.4095,2418.42,222.3969" style="stroke:#181818;stroke-width:1;"/></g><!--link Admin to UC16--><g class="link" data-entity-1="Admin" data-entity-2="UC16" data-source-line="52" data-uid="lnk41" id="link_Admin_UC16"><path d="M2575,119.5169 C2575,152.1669 2575,191.8369 2575,215.5069" fill="none" id="Admin-to-UC16" style="stroke:#181818;stroke-width:1;"/><polygon fill="#181818" points="2575,221.5069,2579,212.5069,2575,216.5069,2571,212.5069,2575,221.5069" style="stroke:#181818;stroke-width:1;"/></g><!--link Admin to UC17--><g class="link" data-entity-1="Admin" data-entity-2="UC17" data-source-line="53" data-uid="lnk42" id="link_Admin_UC17"><path d="M2597.6,99.7469 C2634.79,129.0469 2703.9067,183.4841 2742.4867,213.8741" fill="none" id="Admin-to-UC17" style="stroke:#181818;stroke-width:1;"/><polygon fill="#181818" points="2747.2,217.5869,2742.6052,208.8755,2743.2722,214.4929,2737.6548,215.16,2747.2,217.5869" style="stroke:#181818;stroke-width:1;"/></g><!--link Admin to UC8--><g class="link" data-entity-1="Admin" data-entity-2="UC8" data-source-line="54" data-uid="lnk43" id="link_Admin_UC8"><path d="M2552.32,84.2569 C2487.92,91.3769 2299.21,116.0769 2154,174.0969 C2125.18,185.6169 2100.0954,201.2604 2079.7554,215.4104" fill="none" id="Admin-to-UC8" style="stroke:#181818;stroke-width:1;"/><polygon fill="#181818" points="2074.83,218.8369,2084.5024,216.9808,2078.9345,215.9815,2079.9338,210.4136,2074.83,218.8369" style="stroke:#181818;stroke-width:1;"/><text fill="#000000" font-family="sans-serif" font-size="13" lengthAdjust="spacing" textLength="87.9214" x="2221" y="162.1638">system alerts</text></g><!--link UC6 to UC19--><g class="link" data-entity-1="UC6" data-entity-2="UC19" data-source-line="56" data-uid="lnk44" id="link_UC6_UC19"><path d="M457.06,253.7769 C451.22,268.9569 440.08,292.3669 423,306.1469 C400.07,324.6469 376.1091,334.9938 348.5591,342.6838" fill="none" id="UC6-to-UC19" style="stroke:#181818;stroke-width:1;"/><polygon fill="#181818" points="342.78,344.2969,352.524,345.7299,347.5959,342.9526,350.3732,338.0245,342.78,344.2969" style="stroke:#181818;stroke-width:1;"/><text fill="#000000" font-family="sans-serif" font-size="13" lengthAdjust="spacing" textLength="66.5806" x="440" y="302.2138">&#171;triggers&#187;</text></g><!--link UC5 to UC19--><g class="link" data-entity-1="UC5" data-entity-2="UC19" data-source-line="57" data-uid="lnk45" id="link_UC5_UC19"><path d="M231.21,248.0669 C206.78,254.9969 180.74,267.3069 166,289.1469 C151.07,311.2769 170.271,326.2146 198.621,337.8746" fill="none" id="UC5-to-UC19" style="stroke:#181818;stroke-width:1;"/><polygon fill="#181818" points="204.17,340.1569,197.368,333.0342,199.5458,338.255,194.325,340.4329,204.17,340.1569" style="stroke:#181818;stroke-width:1;"/><text fill="#000000" font-family="sans-serif" font-size="13" lengthAdjust="spacing" textLength="143.311" x="167" y="302.2138">&#171;updates availability&#187;</text></g><!--link UC5 to UC18--><g class="link" data-entity-1="UC5" data-entity-2="UC18" data-source-line="58" data-uid="lnk46" id="link_UC5_UC18"><path d="M299.23,254.9669 C309.08,270.4369 326.12,293.4369 347,306.1469 C392.83,334.0469 446.3789,346.1226 492.3989,352.0326" fill="none" id="UC5-to-UC18" style="stroke:#181818;stroke-width:1;"/><polygon fill="#181818" points="498.35,352.7969,489.9328,347.6831,493.3907,352.16,488.9138,355.6179,498.35,352.7969" style="stroke:#181818;stroke-width:1;"/><text fill="#000000" font-family="sans-serif" font-size="13" lengthAdjust="spacing" textLength="66.5806" x="348" y="302.2138">&#171;triggers&#187;</text></g><!--link UC6 to UC18--><g class="link" data-entity-1="UC6" data-entity-2="UC18" data-source-line="59" data-uid="lnk47" id="link_UC6_UC18"><path d="M486.04,252.9269 C500.31,261.9469 518.07,274.7069 531,289.1469 C544.99,304.7769 553.6963,320.7996 560.4363,335.5496" fill="none" id="UC6-to-UC18" style="stroke:#181818;stroke-width:1;"/><polygon fill="#181818" points="562.93,341.0069,562.8276,331.1585,560.8519,336.4592,555.5513,334.4835,562.93,341.0069" style="stroke:#181818;stroke-width:1;"/><text fill="#000000" font-family="sans-serif" font-size="13" lengthAdjust="spacing" textLength="66.5806" x="544" y="302.2138">&#171;triggers&#187;</text></g><!--link UC14 to UC18--><g class="link" data-entity-1="UC14" data-entity-2="UC18" data-source-line="60" data-uid="lnk48" id="link_UC14_UC18"><path d="M2924.44,252.9269 C2910.46,255.3669 2895.79,257.6069 2882,259.1469 C2007.11,356.9769 942.0399,359.6531 651.6299,358.3831" fill="none" id="UC14-to-UC18" style="stroke:#181818;stroke-width:1;"/><polygon fill="#181818" points="645.63,358.3569,654.6124,362.3962,650.63,358.3787,654.6474,354.3963,645.63,358.3569" style="stroke:#181818;stroke-width:1;"/><text fill="#000000" font-family="sans-serif" font-size="13" lengthAdjust="spacing" textLength="129.4351" x="2569" y="302.2138">&#171;notifies organizer&#187;</text></g><!--SRC=[VLDDRzim3BthLn0vRCt1QFFXV0n5W2p9RLc3fjrTjJbNcoC7ak8W6_RVIybIPjL0WI39uwF9nqVQ25CYRBPFUqZWMIEiE7sj1IyKFy3DNXoEfVWfC8U76bKjyDndZ6UcKj2ZT0Mti3G6POxO0wvj2HNuJOtIm8Cgk1H_K3d-YaBICZy8wIZtZp65cU6o85M-m9PBNk31_lq4JoBxZKR80lONRP0aMktz7lnb0FIvUSH24A5WcMNLIPg-KxKQMEvRLGX9YkctEWLcQ9clgZhJtAwXziJ84ZzeuYOCQpHSb84TMtPtKjchDQoHvQdKKYikConZOdAjkBru9fIRDjep53N2zygGvnatef8XOTOaQ3ImurgVAvLxPkudNodaniyGfhwpn2ON9WuxDzPOullyuRkPzuP4Q2Eo86CmyjsMnwEgIEijFE8lMbbSnxdJBCwTnFNnzDfWno-7bjk3_-RupNPxJvdDsTErHHO5sbdqVCoj2usxiAnfPVn5bC9SGjgS_MFiCoH9GjBBnkHNSTGsmjnD9yd2dKmB3DjWr0RZDaZROD86qpQOjS6SiUjR4LhVTKE3RcZO3OqweHd05r3-ij1jzUGyqeovLouyEevX6iD93ASHd54BtMoDbwWCbQRnG-wSsFjxeqHHq2Ki5iIbCUS50M-jAywRTMjCFk06uvYKxboeGnNSMIpU0000]--></g></svg>